<?xml version="1.0" encoding="utf-8"?>
<!-- Generator: Adobe Illustrator 27.5.0, SVG Export Plug-In . SVG Version: 6.00 Build 0)  -->
<svg version="1.1" xmlns="http://www.w3.org/2000/svg" xmlns:xlink="http://www.w3.org/1999/xlink" x="0px" y="0px"
	 viewBox="0 0 500 500" style="enable-background:new 0 0 500 500;" xml:space="preserve">
<g id="Background_Simple">
	<g>
		<g>
			<g>
				<g>
					<g>
						<path style="fill:#FFE6DE;" d="M451.166,165.119c-7.047,81.857-9.621,195.622-44.511,227.225
							c-11.552,10.459-29.374,17.926-50.692,23.127c-12.029,2.935-25.168,5.156-38.918,6.787
							c-68.813,8.17-152.885,1.632-189.35-2.901c-32.304-4-54.054-48.86-67.104-105.528c-3.673-15.977-6.658-32.872-8.989-50.061
							c-10.298-75.568-8.056-156.654,3.129-187.928c7.912-26.085,44.921-43.059,93.183-51.557
							c10.254-1.813,21.007-3.241,32.104-4.283c19.476-1.836,39.972-2.515,60.59-2.074c7.713,0.181,15.425,0.498,23.115,0.974
							c0.067,0,0.133,0,0.189,0.011c67.293,4.192,132.023,20.272,161.818,47.024c1.387,1.246,2.708,2.527,3.928,3.83
							c5.848,6.119,9.899,12.748,11.841,19.886C450.889,113.086,453.441,138.751,451.166,165.119z"/>
					</g>
				</g>
			</g>
		</g>
		<g>
			<g>
				<path style="fill:#FFFFFF;" d="M205.36,361.472c0,0,4.949,3.87,9.729-1.14c4.78-5.01,16.856-19.736,16.911-22.998
					c0.055-3.262-7.543-10.304-12.218-6.458c-4.675,3.846-17.147,20.169-18.168,22.869
					C201.096,355.114,201.698,359.476,205.36,361.472z"/>
			</g>
			<g>
				<g>
					<path style="fill:#FFE6DE;" d="M221.99,350.697c-5.022,0.009-9.722-3.155-11.676-7.767c-0.313-0.738-1.39-0.102-1.079,0.631
						c2.119,5.001,7.337,8.396,12.756,8.387C222.794,351.946,222.795,350.696,221.99,350.697L221.99,350.697z"/>
				</g>
			</g>
		</g>
		<g>
			<g>
				<g>
					<path style="fill:#FFFFFF;" d="M129.625,82.935c0,0-4.956-17.176-18.997-9.359c0,0,7.878-5.999,5.898-13.05
						c-1.979-7.051-6.842-11.632-6.842-11.632s10.837,3.699,16.34-1.991c7.563-7.819,7.173-13.468,7.173-13.468
						s4.148,7.358,10.253,9.145c6.105,1.787,10.972-3.084,10.972-3.084s-8.231,9.326-5.81,16.794
						c2.422,7.467,8.34,11.518,8.34,11.518s-10.108-4.033-19.218,4.16C128.623,80.161,129.625,82.935,129.625,82.935z"/>
				</g>
			</g>
		</g>
		<g>
			<g>
				<g>
					<path style="fill:#FFFFFF;" d="M263.307,368.529c0,0,12.495-12.785-1.233-21.142c0,0,9.105,3.892,14.261-1.309
						c5.156-5.201,6.742-11.69,6.742-11.69s2.13,11.251,9.794,13.23c10.533,2.72,15.254-0.406,15.254-0.406
						s-4.354,7.238-2.896,13.43c1.458,6.192,8.096,8.022,8.096,8.022s-12.173-2.558-17.474,3.233
						c-5.3,5.791-5.904,12.937-5.904,12.937s-1.479-10.782-13.1-14.663C265.226,366.288,263.307,368.529,263.307,368.529z"/>
				</g>
			</g>
		</g>
		<g>
			<g>
				<path style="fill:#FFFFFF;" d="M110.133,143.658c-6.769-5.254-17.209-0.189-20.733,4.71c-1.668-5.07-12.388-12.513-19.452-8.19
					c-11.166,6.834-4.243,21.396,1.404,28.205c3.515,4.239,12.867,13.154,14.969,15.101c0.179,0.166,0.426,0.189,0.633,0.061
					c2.468-1.531,13.305-8.778,17.118-12.744C109.83,164.813,119.747,151.12,110.133,143.658z"/>
			</g>
			<g>
				<g>
					<path style="fill:#FFE6DE;" d="M61.721,163.585c5.85,0.366,11.7,0.732,17.551,1.098c0.263,0.016,0.543-0.205,0.603-0.459
						c0.433-1.852,0.951-3.691,1.541-5.5c0.225-0.688,1.797-5.944,2.907-5.59c0.238,0.076,0.433,1.299,0.489,1.628
						c0.191,1.12,0.256,2.264,0.317,3.397c0.162,2.997,0.178,5.999,0.297,8.997c0.062,1.576-0.097,11.467,3.731,9.178
						c1.151-0.688,1.78-2.125,2.274-3.304c0.72-1.719,1.23-3.519,1.749-5.307c0.519-1.786,0.857-4.214,2.852-4.924
						c0.681-0.242,1.303-0.149,2-0.105c5.002,0.315,10.004,0.63,15.006,0.944c0.803,0.051,0.8-1.2,0-1.25
						c-4.635-0.292-9.27-0.583-13.906-0.875c-2.161-0.136-4.238-0.315-5.674,1.76c-0.969,1.401-1.269,3.387-1.741,4.997
						c-0.527,1.794-1.042,3.647-1.911,5.311c-0.281,0.538-1.247,2.199-1.868,1.761c-0.53-0.373-0.647-1.605-0.751-2.17
						c-0.498-2.703-0.508-5.516-0.587-8.255c-0.083-2.899-0.09-5.813-0.36-8.702c-0.11-1.178-0.121-3.837-1.578-4.292
						c-2.215-0.692-3.535,3.846-4.023,5.208c-0.791,2.206-1.438,4.478-1.971,6.76c0.201-0.153,0.402-0.306,0.603-0.459
						c-5.85-0.366-11.701-0.732-17.551-1.098C60.917,162.284,60.92,163.535,61.721,163.585L61.721,163.585z"/>
				</g>
			</g>
		</g>
		<g>
			<g>
				<path style="fill:#FFFFFF;" d="M126.078,195.299c2.411,1.28,66.28,140.306,63.231,146.17
					c-3.049,5.865-80.443,43.982-88.649,36.079c-8.205-7.902-67.237-140.573-65.32-146.368
					C37.258,225.385,110.35,186.948,126.078,195.299z"/>
			</g>
			<g>
				<g>
					<path style="fill:#FFE6DE;" d="M95.847,219.263c-3.08,7.232,0.286,15.591,7.517,18.671c7.232,3.08,15.591-0.286,18.671-7.517
						c3.08-7.232-0.286-15.591-7.517-18.671C107.286,208.666,98.927,212.031,95.847,219.263z"/>
				</g>
				<g>
					<path style="fill:#FFE6DE;" d="M98.088,218.361c-3.08,7.232,0.286,15.591,7.517,18.671c7.232,3.08,15.591-0.286,18.671-7.517
						c3.08-7.232-0.286-15.591-7.517-18.671S101.168,211.129,98.088,218.361z"/>
				</g>
				<g>
					<g>
						<path style="fill:#FFFFFF;" d="M109.939,237.204c-5.072-0.656-9.679-4.275-11.388-9.121c-1.782-5.053-0.33-10.87,3.452-14.617
							c0.572-0.567-0.312-1.451-0.884-0.884c-4.16,4.121-5.765,10.644-3.651,16.167c2.013,5.259,6.919,8.988,12.471,9.706
							C110.735,238.557,110.727,237.306,109.939,237.204L109.939,237.204z"/>
					</g>
				</g>
				<g>
					<g>
						<path style="fill:#FFFFFF;" d="M124.803,223.922c-6.898-0.89-13.827-1.507-20.774-1.848c-0.804-0.04-0.802,1.211,0,1.25
							c6.947,0.341,13.876,0.958,20.774,1.848C125.598,225.274,125.591,224.023,124.803,223.922L124.803,223.922z"/>
					</g>
				</g>
			</g>
			<g>
				<g>
					
						<ellipse transform="matrix(0.8251 -0.565 0.565 0.8251 -124.7253 114.8042)" style="fill:#FFE6DE;" cx="123.073" cy="258.863" rx="14.232" ry="14.232"/>
				</g>
				<g>
					
						<ellipse transform="matrix(0.9424 -0.3345 0.3345 0.9424 -79.0646 56.7724)" style="fill:#FFE6DE;" cx="125.314" cy="257.961" rx="14.232" ry="14.232"/>
				</g>
				<g>
					<g>
						<path style="fill:#FFFFFF;" d="M124.071,271.228c-5.072-0.656-9.679-4.275-11.388-9.121c-1.782-5.053-0.33-10.87,3.452-14.617
							c0.572-0.567-0.312-1.451-0.884-0.884c-4.16,4.121-5.765,10.644-3.651,16.166c2.013,5.259,6.919,8.987,12.471,9.706
							C124.867,272.581,124.859,271.33,124.071,271.228L124.071,271.228z"/>
					</g>
				</g>
				<g>
					<g>
						<path style="fill:#FFFFFF;" d="M138.935,257.945c-6.898-0.89-13.827-1.507-20.774-1.848c-0.804-0.04-0.802,1.211,0,1.25
							c6.947,0.341,13.876,0.958,20.774,1.848C139.73,259.298,139.723,258.047,138.935,257.945L138.935,257.945z"/>
					</g>
				</g>
			</g>
			<g>
				<g>
					
						<ellipse transform="matrix(0.9171 -0.3987 0.3987 0.9171 -104.8491 79.4096)" style="fill:#FFE6DE;" cx="138.496" cy="291.789" rx="14.232" ry="14.232"/>
				</g>
				<g>
					
						<ellipse transform="matrix(0.7226 -0.6913 0.6913 0.7226 -162.0431 177.9878)" style="fill:#FFE6DE;" cx="140.737" cy="290.887" rx="14.232" ry="14.232"/>
				</g>
				<g>
					<g>
						<path style="fill:#FFFFFF;" d="M139.494,304.153c-5.072-0.656-9.679-4.275-11.388-9.121c-1.782-5.053-0.33-10.87,3.452-14.617
							c0.572-0.567-0.312-1.451-0.884-0.884c-4.16,4.121-5.765,10.644-3.651,16.167c2.013,5.259,6.919,8.987,12.471,9.706
							C140.29,305.506,140.282,304.255,139.494,304.153L139.494,304.153z"/>
					</g>
				</g>
				<g>
					<g>
						<path style="fill:#FFFFFF;" d="M154.358,290.871c-6.898-0.89-13.827-1.507-20.774-1.848c-0.804-0.039-0.802,1.211,0,1.25
							c6.947,0.342,13.876,0.958,20.774,1.848C155.153,292.223,155.146,290.972,154.358,290.871L154.358,290.871z"/>
					</g>
				</g>
			</g>
			<g>
				<g>
					
						<ellipse transform="matrix(0.7071 -0.7071 0.7071 0.7071 -185.2076 206.7739)" style="fill:#FFE6DE;" cx="156.994" cy="326.952" rx="14.232" ry="14.232"/>
				</g>
				<g>
					<path style="fill:#FFE6DE;" d="M146.141,320.474c-3.08,7.232,0.286,15.591,7.517,18.671c7.232,3.08,15.591-0.286,18.671-7.517
						s-0.286-15.591-7.517-18.671C157.58,309.876,149.221,313.242,146.141,320.474z"/>
				</g>
				<g>
					<g>
						<path style="fill:#FFFFFF;" d="M157.992,339.317c-5.072-0.656-9.679-4.275-11.388-9.121c-1.782-5.053-0.33-10.87,3.452-14.617
							c0.572-0.567-0.311-1.451-0.884-0.884c-4.16,4.121-5.765,10.644-3.651,16.167c2.014,5.259,6.919,8.987,12.471,9.705
							C158.788,340.67,158.78,339.419,157.992,339.317L157.992,339.317z"/>
					</g>
				</g>
				<g>
					<g>
						<path style="fill:#FFFFFF;" d="M172.856,326.034c-6.898-0.89-13.827-1.507-20.774-1.848c-0.804-0.04-0.802,1.211,0,1.25
							c6.947,0.341,13.876,0.958,20.774,1.848C173.651,327.387,173.644,326.136,172.856,326.034L172.856,326.034z"/>
					</g>
				</g>
			</g>
			<g>
				<g>
					<path style="fill:#FFE6DE;" d="M101.89,339.003c-3.08,7.232,0.286,15.591,7.517,18.671s15.591-0.286,18.671-7.517
						c3.08-7.232-0.286-15.591-7.517-18.671C113.329,328.405,104.97,331.771,101.89,339.003z"/>
				</g>
				<g>
					
						<ellipse transform="matrix(0.5919 -0.806 0.806 0.5919 -229.1708 234.747)" style="fill:#FFE6DE;" cx="117.224" cy="343.677" rx="14.232" ry="14.232"/>
				</g>
				<g>
					<g>
						<path style="fill:#FFFFFF;" d="M115.982,356.944c-5.073-0.656-9.679-4.275-11.388-9.121c-1.782-5.053-0.33-10.87,3.452-14.617
							c0.572-0.567-0.312-1.451-0.884-0.884c-4.16,4.121-5.765,10.644-3.651,16.167c2.013,5.259,6.919,8.987,12.471,9.705
							C116.777,358.297,116.77,357.046,115.982,356.944L115.982,356.944z"/>
					</g>
				</g>
				<g>
					<g>
						<path style="fill:#FFFFFF;" d="M130.845,343.661c-6.898-0.89-13.827-1.507-20.774-1.848c-0.804-0.04-0.802,1.211,0,1.25
							c6.947,0.341,13.876,0.958,20.774,1.848C131.641,345.014,131.633,343.763,130.845,343.661L130.845,343.661z"/>
					</g>
				</g>
			</g>
			<g>
				<g>
					
						<ellipse transform="matrix(0.9829 -0.184 0.184 0.9829 -55.5455 23.5374)" style="fill:#FFE6DE;" cx="99.063" cy="311.086" rx="14.232" ry="14.232"/>
				</g>
				<g>
					<path style="fill:#FFE6DE;" d="M88.21,304.607c-3.08,7.232,0.286,15.591,7.517,18.671c7.232,3.08,15.591-0.286,18.671-7.517
						c3.08-7.232-0.286-15.591-7.517-18.671C99.649,294.01,91.29,297.376,88.21,304.607z"/>
				</g>
				<g>
					<g>
						<path style="fill:#FFFFFF;" d="M100.061,323.451c-5.073-0.656-9.679-4.275-11.388-9.121c-1.782-5.053-0.33-10.87,3.452-14.617
							c0.572-0.567-0.312-1.451-0.884-0.884c-4.16,4.121-5.765,10.644-3.651,16.167c2.013,5.259,6.919,8.987,12.471,9.706
							C100.857,324.804,100.849,323.553,100.061,323.451L100.061,323.451z"/>
					</g>
				</g>
				<g>
					<g>
						<path style="fill:#FFFFFF;" d="M114.925,310.168c-6.898-0.89-13.827-1.507-20.774-1.848c-0.804-0.039-0.802,1.211,0,1.25
							c6.947,0.341,13.876,0.958,20.774,1.848C115.72,311.521,115.713,310.27,114.925,310.168L114.925,310.168z"/>
					</g>
				</g>
			</g>
			<g>
				<g>
					
						<ellipse transform="matrix(0.9829 -0.184 0.184 0.9829 -49.668 20.2744)" style="fill:#FFE6DE;" cx="84.419" cy="277.783" rx="14.232" ry="14.232"/>
				</g>
				<g>
					
						<ellipse transform="matrix(0.9749 -0.2225 0.2225 0.9749 -59.4455 26.2293)" style="fill:#FFE6DE;" cx="86.659" cy="276.88" rx="14.232" ry="14.232"/>
				</g>
				<g>
					<g>
						<path style="fill:#FFFFFF;" d="M85.417,290.147c-5.072-0.656-9.679-4.275-11.388-9.121c-1.782-5.053-0.33-10.87,3.452-14.617
							c0.572-0.567-0.312-1.451-0.884-0.884c-4.16,4.121-5.765,10.644-3.651,16.167c2.013,5.259,6.919,8.987,12.471,9.706
							C86.212,291.5,86.205,290.249,85.417,290.147L85.417,290.147z"/>
					</g>
				</g>
				<g>
					<g>
						<path style="fill:#FFFFFF;" d="M100.28,276.865c-6.898-0.89-13.827-1.507-20.774-1.848c-0.804-0.039-0.802,1.211,0,1.25
							c6.947,0.342,13.876,0.958,20.774,1.848C101.076,278.217,101.068,276.966,100.28,276.865L100.28,276.865z"/>
					</g>
				</g>
			</g>
			<g>
				<g>
					
						<ellipse transform="matrix(0.0923 -0.9957 0.9957 0.0923 -180.0998 291.3994)" style="fill:#FFE6DE;" cx="69.774" cy="244.479" rx="14.232" ry="14.232"/>
				</g>
				<g>
					
						<ellipse transform="matrix(0.0631 -0.998 0.998 0.0631 -175.623 300.0697)" style="fill:#FFE6DE;" cx="72.015" cy="243.577" rx="14.232" ry="14.232"/>
				</g>
				<g>
					<g>
						<path style="fill:#FFFFFF;" d="M70.772,256.844c-5.072-0.656-9.679-4.275-11.388-9.121c-1.782-5.053-0.33-10.87,3.452-14.617
							c0.572-0.567-0.312-1.451-0.884-0.884c-4.16,4.121-5.765,10.644-3.651,16.167c2.013,5.259,6.919,8.987,12.471,9.706
							C71.568,258.197,71.56,256.946,70.772,256.844L70.772,256.844z"/>
					</g>
				</g>
				<g>
					<g>
						<path style="fill:#FFFFFF;" d="M85.636,243.561c-6.898-0.89-13.827-1.507-20.774-1.848c-0.804-0.04-0.802,1.211,0,1.25
							c6.947,0.342,13.876,0.958,20.774,1.848C86.431,244.914,86.424,243.663,85.636,243.561L85.636,243.561z"/>
					</g>
				</g>
			</g>
			<g>
				<g>
					<path style="fill:#FFE6DE;" d="M141.968,344.84c-8.255-14.454-15.918-29.243-22.952-44.329
						c-7.077-15.177-13.518-30.649-19.302-46.363c-3.263-8.864-6.313-17.804-9.158-26.811c-0.241-0.764-1.449-0.438-1.205,0.332
						c5.06,16.02,10.78,31.829,17.157,47.372c6.338,15.449,13.311,30.637,20.906,45.509c4.296,8.412,8.792,16.72,13.476,24.921
						C141.288,346.17,142.368,345.541,141.968,344.84L141.968,344.84z"/>
				</g>
			</g>
		</g>
		<g>
			<g>
				<path style="fill:#FFFFFF;" d="M433.318,230.075c0,0,2.062-5.935-4.224-8.838c-6.286-2.903-24.126-9.57-27.23-8.567
					c-3.105,1.002-7.312,10.469-2.161,13.65c5.151,3.181,24.629,9.706,27.515,9.799C428.68,236.165,432.613,234.186,433.318,230.075
					z"/>
			</g>
			<g>
				<g>
					<path style="fill:#FFE6DE;" d="M417.734,217.786c1.625,4.748,0.204,10.212-3.533,13.563c-0.6,0.538,0.286,1.42,0.884,0.884
						c4.044-3.627,5.614-9.638,3.854-14.779C418.68,216.697,417.472,217.022,417.734,217.786L417.734,217.786z"/>
				</g>
			</g>
		</g>
		<g>
			<g>
				<path style="fill:#FFFFFF;" d="M106.457,115.453c0,0,4.658-4.216,0.536-9.781S90.422,85.697,87.217,85.086
					c-3.205-0.611-11.44,5.674-8.448,10.937c2.992,5.263,16.948,20.336,19.435,21.803
					C99.465,118.569,103.865,118.721,106.457,115.453z"/>
			</g>
			<g>
				<g>
					<path style="fill:#FFE6DE;" d="M98.69,97.17c-0.841,4.941-4.718,9.087-9.606,10.222c-0.783,0.182-0.452,1.387,0.332,1.205
						c5.271-1.224,9.57-5.755,10.479-11.096C100.029,96.715,98.825,96.377,98.69,97.17L98.69,97.17z"/>
				</g>
			</g>
		</g>
		<g>
			<g>
				<path style="fill:#FFFFFF;" d="M276.06,63.665c0,0,4.536,4.348,9.794-0.157c5.259-4.505,18.752-17.944,19.135-21.184
					c0.382-3.24-6.47-11.01-11.508-7.653c-5.038,3.357-19.086,18.345-20.372,20.93C272.456,56.911,272.617,61.311,276.06,63.665z"/>
			</g>
			<g>
				<g>
					<path style="fill:#FFE6DE;" d="M293.625,54.611c-4.906-0.484-9.289-4.104-10.741-8.804c-0.237-0.766-1.444-0.439-1.205,0.332
						c1.627,5.27,6.468,9.182,11.946,9.721C294.425,55.94,294.419,54.689,293.625,54.611L293.625,54.611z"/>
				</g>
			</g>
		</g>
		<g>
			<path style="fill:#FFFFFF;" d="M437.565,124.475c0,0-5.323,0.177-11.849,0.418c-0.244-6.208-0.483-11.204-0.63-11.598
				c-0.385-1.025-12.379-0.281-12.37,0.948c0,0,0.011,4.933,0.184,11.156c-5.837,0.252-10.504,0.497-10.876,0.65
				c-0.98,0.402-0.268,12.944,0.907,12.935c0,0,4.679-0.012,10.596-0.191c0.453,6.153,1.159,11.16,2.257,11.603
				c1.299,0.523,10.806,0.063,10.806,0.063s-0.168-5.52-0.397-12.307c5.982-0.473,10.882-1.215,11.311-2.378
				C438.005,134.417,437.565,124.475,437.565,124.475z"/>
		</g>
		<g>
			<g>
				<path style="fill:#FFFFFF;" d="M355.394,50.091l1.303-3.968l1.48,3.968c0,0,2.957,0.503,2.991,0.778
					c0.034,0.27-2.83,1.114-2.83,1.114s-1.202,3.847-1.641,2.976c-0.439-0.871-0.866-2.8-0.866-2.8s-3.723-0.773-3.723-1.153
					C352.108,50.594,355.394,50.091,355.394,50.091z"/>
			</g>
		</g>
		<g>
			<g>
				<path style="fill:#FFFFFF;" d="M427.094,180.604l1.303-3.968l1.48,3.968c0,0,2.957,0.503,2.991,0.779
					c0.034,0.27-2.83,1.114-2.83,1.114s-1.202,3.847-1.641,2.976c-0.439-0.871-0.866-2.8-0.866-2.8s-3.723-0.773-3.723-1.153
					C423.809,181.108,427.094,180.604,427.094,180.604z"/>
			</g>
		</g>
		<g>
			<g>
				<path style="fill:#FFFFFF;" d="M301.839,395.818l1.303-3.968l1.48,3.968c0,0,2.957,0.503,2.991,0.779
					c0.034,0.27-2.83,1.114-2.83,1.114s-1.202,3.848-1.641,2.976c-0.439-0.871-0.866-2.8-0.866-2.8s-3.723-0.773-3.723-1.153
					C298.553,396.322,301.839,395.818,301.839,395.818z"/>
			</g>
		</g>
		<g>
			<g>
				<path style="fill:#FFFFFF;" d="M63.083,110.734l1.303-3.968l1.48,3.968c0,0,2.956,0.503,2.991,0.778
					c0.034,0.27-2.83,1.114-2.83,1.114s-1.202,3.847-1.641,2.976c-0.439-0.871-0.866-2.8-0.866-2.8s-3.723-0.773-3.723-1.153
					C59.798,111.238,63.083,110.734,63.083,110.734z"/>
			</g>
		</g>
	</g>
</g>
<g id="Speech_Bubble">
	<g>
		<g>
			<g>
				<g>
					<path style="fill:#8380FF;" d="M428.693,74.336c-5.708-5.32-15.619-7.057-23.22-5.293c-7.601,1.764-14.166,7.49-16.947,14.781
						c-1.168,3.062-1.696,6.44-1.004,9.644c0.692,3.204,2.713,6.2,5.666,7.621c-1.661,1.757-3.653,3.199-5.835,4.238
						c-0.959,0.457-0.986,2.068,0.063,2.237c4.957,0.798,9.005,0.279,12.208-1.836c5.208,2.683,12.917,2.313,18.737,1.636
						c5.82-0.678,11.501-3.902,14.265-9.068C436.207,91.6,436.052,80.66,428.693,74.336"/>
				</g>
			</g>
		</g>
		<g>
			<g>
				<g>
					<g>
						<path style="fill:#A0D2F4;" d="M394.879,93.279c3.798-1.217,6.885-4.205,8.044-8.053c0.434-1.44,0.636-3.391-0.761-4.381
							c-1.388-0.983-3.144-0.115-3.935,1.194c-2.207,3.651,0.121,9.632,3.047,12.235c3.16,2.812,7.711,2.638,10.379-0.73
							c1.965-2.48,3.831-9.671-0.277-11.185c-4.18-1.541-4.541,4.94-3.754,7.36c1.285,3.951,5.012,6.609,9.198,6.179
							c3.942-0.405,6.952-3.443,7.28-7.395c0.153-1.846-0.334-4.322-1.869-5.535c-1.583-1.25-3.102,0.043-3.402,1.721
							c-0.87,4.857,3.417,8.975,8.033,9.115c0.983,0.03,0.982-1.497,0-1.526c-3.039-0.092-5.713-2.073-6.411-5.091
							c-0.147-0.636-0.216-1.309-0.149-1.96c0.07-0.68-0.052-0.665,0.762-0.611c0.85,0.057,0.523-0.055,0.862,0.409
							c0.779,1.067,0.792,2.878,0.559,4.11c-1.11,5.858-8.956,6.994-12.283,2.355c-1.264-1.762-2.402-5.267-0.796-7.173
							c0.694-0.823,1.875-0.567,2.385,0.358c0.434,0.789,0.415,1.842,0.377,2.716c-0.066,1.551-0.406,3.168-1.225,4.507
							c-1.603,2.624-4.654,3.662-7.411,2.131c-2.53-1.404-3.945-4.418-4.431-7.169c-0.173-0.979-0.249-2.02,0.016-2.992
							c0.074-0.274,0.163-0.528,0.292-0.782c0.236-0.464,1.002-1.343,1.653-1.112c1.555,0.551,0.163,3.635-0.26,4.468
							c-1.302,2.567-3.596,4.487-6.328,5.362C393.541,92.106,393.939,93.58,394.879,93.279L394.879,93.279z"/>
					</g>
				</g>
			</g>
		</g>
	</g>
</g>
<g id="Medication">
	<g>
		<g>
			<g>
				<path style="fill:#8380FF;" d="M172.28,455.996c0,0-0.524-6.261-7.448-6.362c-6.924-0.102-22.875,1.407-25.305,3.583
					c-2.43,2.176-2.433,12.536,3.566,13.352c5.999,0.816,23.39-1.487,26.065-2.574C170.513,463.445,173.304,460.039,172.28,455.996z
					"/>
			</g>
			<g>
				<g>
					<path style="fill:#421B36;" d="M153.09,451.137c3.347,3.611,4.298,9.19,2.279,13.693c-0.326,0.728,0.75,1.365,1.079,0.631
						c2.258-5.036,1.285-11.152-2.475-15.208C153.426,449.662,152.544,450.547,153.09,451.137L153.09,451.137z"/>
				</g>
			</g>
		</g>
		<g>
			<g>
				<path style="fill:#A0D2F4;" d="M285.017,369.133h-54.555c0,0,2.098,76.002,4.38,78.064c1.77,3.672,12.486,6.498,24.85,6.498
					c13.54,0,24.517-3.388,24.517-7.567c0-0.057-0.01-0.114-0.014-0.171C285.678,436.519,285.017,369.133,285.017,369.133z"/>
			</g>
			<g>
				<path style="fill:#421B36;" d="M259.615,447.955c-10.222,0-17.133-1.466-18.893-2.33c-1.195-4.284-2.916-24.548-3.701-42.534
					h41.757c0.198,17.334-0.218,37.963-1.089,42.7C275.691,446.657,269.28,447.955,259.615,447.955z M239.691,444.21"/>
			</g>
			<g>
				<g>
					<path style="fill:#8380FF;" d="M288.949,378.699c0,5.8-13.822,10.502-30.872,10.502c-17.05,0-31.62-4.702-31.62-10.502
						c0-5.8,14.57-10.502,31.62-10.502C275.127,368.197,288.949,372.899,288.949,378.699z"/>
				</g>
				<g>
					<path style="fill:#8380FF;" d="M226.457,366.835c0,0-0.988,10.849,0,11.865c0.988,1.016,62.492,0,62.492,0
						s0.381-11.927-0.217-13.092S226.457,366.835,226.457,366.835z"/>
				</g>
				<g>
					<path style="fill:#8380FF;" d="M288.949,366.643c0,5.082-13.822,9.203-30.872,9.203c-17.05,0-31.62-4.12-31.62-9.203
						s14.57-9.203,31.62-9.203C275.127,357.441,288.949,361.561,288.949,366.643z"/>
					<path style="fill:#421B36;" d="M258.077,376.346c-15.447,0-32.12-3.709-32.12-9.702c0-5.993,16.672-9.703,32.12-9.703
						c17.592,0,31.372,4.262,31.372,9.703C289.449,372.084,275.669,376.346,258.077,376.346z M258.077,357.941
						c-16.578,0-31.12,4.066-31.12,8.703c0,4.636,14.542,8.702,31.12,8.702c18.168,0,30.372-4.5,30.372-8.702
						C288.449,362.441,276.245,357.941,258.077,357.941z"/>
				</g>
			</g>
			<g>
				<path style="fill:#421B36;" d="M278.779,403.091c0,3.505-9.348,6.346-20.878,6.346c-11.531,0-20.879-2.841-20.879-6.346
					c0-3.505,9.348-6.346,20.879-6.346C269.431,396.745,278.779,399.586,278.779,403.091z"/>
			</g>
			<g>
				<path style="fill:#A0D2F4;" d="M257.9,409.937c-10.509,0-21.378-2.56-21.378-6.846c0-4.285,10.87-6.846,21.378-6.846
					c10.509,0,21.379,2.561,21.379,6.846C279.279,407.376,268.409,409.937,257.9,409.937z M257.9,397.245
					c-12.19,0-20.378,3.023-20.378,5.846c0,2.823,8.189,5.846,20.378,5.846c12.19,0,20.379-3.022,20.379-5.846
					C278.279,400.268,270.09,397.245,257.9,397.245z"/>
			</g>
			<g>
				<g>
					<path style="fill:#FFFFFF;" d="M255.257,427.563c9.607-2.117,18.667-6.323,26.478-12.304c0.63-0.482,0.008-1.569-0.631-1.079
						c-7.735,5.922-16.665,10.081-26.179,12.177C254.139,426.53,254.471,427.736,255.257,427.563L255.257,427.563z"/>
				</g>
			</g>
			<g>
				<g>
					<path style="fill:#FFFFFF;" d="M269.137,428.452c3.02-1.473,6.04-2.946,9.061-4.419c0.723-0.353,0.09-1.431-0.631-1.079
						c-3.02,1.473-6.041,2.946-9.061,4.419C267.783,427.725,268.416,428.803,269.137,428.452L269.137,428.452z"/>
				</g>
			</g>
			<g>
				<g>
					<path style="fill:#421B36;" d="M228.955,371.405c-1.604,3.913-1.492,8.342,0.192,12.205c0.321,0.736,1.398,0.1,1.079-0.631
						c-1.553-3.563-1.535-7.659-0.066-11.242C230.465,370.994,229.256,370.67,228.955,371.405L228.955,371.405z"/>
				</g>
			</g>
			<g>
				<g>
					<path style="fill:#421B36;" d="M236.457,373.481c-0.692,4.473-0.318,9.04,1.153,13.326c0.26,0.757,1.467,0.431,1.205-0.332
						c-1.394-4.063-1.811-8.412-1.153-12.661C237.784,373.026,236.58,372.687,236.457,373.481L236.457,373.481z"/>
				</g>
			</g>
			<g>
				<g>
					<path style="fill:#421B36;" d="M247.693,375.856c0.008,3.825,0.181,7.646,0.52,11.456c0.071,0.795,1.321,0.802,1.25,0
						c-0.339-3.81-0.513-7.631-0.52-11.456C248.941,375.052,247.691,375.05,247.693,375.856L247.693,375.856z"/>
				</g>
			</g>
			<g>
				<g>
					<path style="fill:#421B36;" d="M258.469,376.618c0.842,4.14,1.057,8.373,0.666,12.579c-0.074,0.801,1.176,0.796,1.25,0
						c0.402-4.317,0.153-8.663-0.711-12.911C259.514,375.498,258.309,375.831,258.469,376.618L258.469,376.618z"/>
				</g>
			</g>
			<g>
				<g>
					<path style="fill:#421B36;" d="M268.262,375.96c1.439,3.859,1.988,7.964,1.615,12.066c-0.073,0.801,1.178,0.796,1.25,0
						c0.382-4.198-0.187-8.448-1.659-12.398C269.189,374.881,267.98,375.204,268.262,375.96L268.262,375.96z"/>
				</g>
			</g>
			<g>
				<g>
					<path style="fill:#421B36;" d="M278.949,374.142c1.367,3.517,1.558,7.246,1.56,10.979c0.001,0.804,1.251,0.806,1.25,0
						c-0.003-3.833-0.201-7.7-1.605-11.311C279.866,373.068,278.657,373.391,278.949,374.142L278.949,374.142z"/>
				</g>
			</g>
			<g>
				<path style="fill:#FFFFFF;" d="M234.675,405.59c-0.528-0.273,0.92,29.201,0.92,29.201s6.168,6.277,15.372,6.607l-1.102-29.491
					C249.864,411.907,240.422,408.563,234.675,405.59z"/>
			</g>
		</g>
		<g>
			<g>
				<path style="fill:#A0D2F4;" d="M229.268,385.268h-63.253c0,0,2.432,88.12,5.078,90.51c2.052,4.258,14.477,7.534,28.812,7.534
					c15.699,0,28.426-3.928,28.426-8.773c0-0.067-0.012-0.132-0.016-0.198C230.034,463.398,229.268,385.268,229.268,385.268z"/>
				<path style="fill:#421B36;" d="M199.904,483.812c-14.506,0-27.065-3.347-29.249-7.79c-2.622-4.164-4.738-76.178-5.14-90.739
					l-0.014-0.514h64.262l0.005,0.495c0.031,3.185,0.745,78.003-0.95,89.09c0.008,0.083,0.012,0.134,0.012,0.186
					C228.83,479.739,216.125,483.812,199.904,483.812z M166.529,385.769c0.972,34.984,3.069,87.361,4.912,89.651l0.102,0.142
					c1.96,4.065,14.417,7.25,28.361,7.25c16.705,0,27.926-4.277,27.926-8.272l-0.019-0.22l0.009-0.058
					c1.623-10.323,1.013-81.813,0.952-88.493H166.529z"/>
			</g>
			<g>
				<path style="fill:#8380FF;" d="M199.815,476.658c-11.851,0-19.865-1.7-21.905-2.702c-1.385-4.967-3.381-28.462-4.291-49.316
					h48.415c0.23,20.098-0.253,44.016-1.263,49.508C218.455,475.153,211.021,476.658,199.815,476.658z M176.714,472.316"/>
			</g>
			<g>
				<g>
					<path style="fill:#421B36;" d="M233.826,396.36c0,6.725-16.025,12.176-35.794,12.176c-19.768,0-36.661-5.452-36.661-12.176
						c0-6.725,16.893-12.176,36.661-12.176C217.8,384.184,233.826,389.635,233.826,396.36z"/>
				</g>
				<g>
					<path style="fill:#421B36;" d="M161.37,382.604c0,0-1.146,12.579,0,13.756c1.146,1.177,72.455,0,72.455,0
						s0.441-13.828-0.251-15.179C232.882,379.831,161.37,382.604,161.37,382.604z"/>
				</g>
				<g>
					<path style="fill:#421B36;" d="M233.826,382.382c0,5.893-16.025,10.67-35.794,10.67c-19.768,0-36.661-4.777-36.661-10.67
						c0-5.893,16.893-10.67,36.661-10.67C217.8,371.712,233.826,376.489,233.826,382.382z"/>
					<path style="fill:#8380FF;" d="M198.032,393.552c-20.491,0-37.161-5.011-37.161-11.17c0-6.159,16.671-11.17,37.161-11.17
						c20.352,0,36.293,4.906,36.293,11.17C234.325,388.646,218.383,393.552,198.032,393.552z M198.032,372.212
						c-19.263,0-36.161,4.752-36.161,10.17c0,5.418,16.898,10.17,36.161,10.17c19.131,0,35.293-4.657,35.293-10.17
						C233.325,376.87,217.163,372.212,198.032,372.212z"/>
				</g>
			</g>
			<g>
				<ellipse style="fill:#8380FF;" cx="197.827" cy="424.641" rx="24.207" ry="7.358"/>
			</g>
			<g>
				<path style="fill:#A0D2F4;" d="M197.827,432.498c-13.855,0-24.707-3.451-24.707-7.858c0-4.406,10.852-7.857,24.707-7.857
					c13.854,0,24.707,3.451,24.707,7.857C222.534,429.047,211.681,432.498,197.827,432.498z M197.827,417.784
					c-14.181,0-23.707,3.546-23.707,6.857c0,3.312,9.526,6.858,23.707,6.858c14.181,0,23.707-3.546,23.707-6.858
					C221.534,421.329,212.008,417.784,197.827,417.784z"/>
			</g>
			<g>
				<g>
					<path style="fill:#FFFFFF;" d="M194.735,452.918c11.127-2.447,21.633-7.325,30.676-14.255c0.63-0.483,0.008-1.569-0.631-1.079
						c-8.967,6.872-19.343,11.703-30.377,14.129C193.618,451.885,193.95,453.091,194.735,452.918L194.735,452.918z"/>
				</g>
			</g>
			<g>
				<g>
					<path style="fill:#FFFFFF;" d="M210.805,453.959c3.502-1.708,7.004-3.416,10.505-5.124c0.723-0.353,0.09-1.431-0.631-1.079
						c-3.502,1.708-7.004,3.416-10.506,5.124C209.451,453.232,210.084,454.311,210.805,453.959L210.805,453.959z"/>
				</g>
			</g>
			<g>
				<g>
					<path style="fill:#8380FF;" d="M164.363,387.93c-1.849,4.511-1.729,9.618,0.213,14.074c0.321,0.736,1.398,0.1,1.079-0.631
						c-1.811-4.155-1.801-8.93-0.087-13.111C165.873,387.518,164.664,387.194,164.363,387.93L164.363,387.93z"/>
				</g>
			</g>
			<g>
				<g>
					<path style="fill:#8380FF;" d="M173.061,390.336c-0.8,5.169-0.362,10.446,1.337,15.397c0.26,0.757,1.467,0.431,1.205-0.332
						c-1.623-4.728-2.102-9.788-1.337-14.733C174.388,389.882,173.184,389.543,173.061,390.336L173.061,390.336z"/>
				</g>
			</g>
			<g>
				<g>
					<path style="fill:#8380FF;" d="M186.092,393.063c0.009,4.434,0.21,8.865,0.603,13.282c0.071,0.795,1.322,0.802,1.25,0
						c-0.393-4.417-0.594-8.848-0.603-13.282C187.34,392.259,186.09,392.258,186.092,393.063L186.092,393.063z"/>
				</g>
			</g>
			<g>
				<g>
					<path style="fill:#8380FF;" d="M198.582,393.92c0.978,4.808,1.23,9.726,0.776,14.611c-0.074,0.801,1.176,0.796,1.25,0
						c0.465-4.997,0.18-10.026-0.82-14.943C199.627,392.8,198.422,393.134,198.582,393.92L198.582,393.92z"/>
				</g>
			</g>
			<g>
				<g>
					<path style="fill:#8380FF;" d="M209.937,393.158c1.67,4.482,2.309,9.252,1.876,14.016c-0.073,0.801,1.178,0.796,1.25,0
						c0.442-4.859-0.216-9.776-1.92-14.348C210.863,392.079,209.655,392.402,209.937,393.158L209.937,393.158z"/>
				</g>
			</g>
			<g>
				<g>
					<path style="fill:#8380FF;" d="M220.493,391.05c1.642,4.178,2.871,8.504,3.67,12.922c0.143,0.79,1.348,0.456,1.205-0.332
						c-0.799-4.418-2.028-8.743-3.67-12.922C221.407,389.978,220.198,390.3,220.493,391.05L220.493,391.05z"/>
				</g>
			</g>
			<g>
				<path style="fill:#FFFFFF;" d="M170.727,426.638c-0.528-0.273,0.92,29.201,0.92,29.201s6.168,6.277,15.372,6.607l-1.102-29.491
					C185.916,432.955,176.474,429.611,170.727,426.638z"/>
			</g>
		</g>
		<g>
			<g>
				<path style="fill:#8380FF;" d="M122.86,385.419c0,0-4.867,3.973-1.035,9.741c3.832,5.767,15.532,20.794,18.701,21.568
					c3.169,0.773,11.714-5.084,8.994-10.492c-2.72-5.408-15.889-21.174-18.298-22.765
					C130.001,382.664,125.615,382.288,122.86,385.419z"/>
			</g>
			<g>
				<g>
					<path style="fill:#421B36;" d="M129.694,404.045c1.093-4.896,5.202-8.814,10.136-9.697c0.791-0.141,0.456-1.346-0.332-1.205
						c-5.332,0.954-9.831,5.288-11.009,10.57C128.314,404.496,129.518,404.831,129.694,404.045L129.694,404.045z"/>
				</g>
			</g>
		</g>
		<g>
			<g>
				<path style="fill:#A0D2F4;" d="M101.524,437.18c0,0-0.444,6.267,6.382,7.43c6.826,1.164,25.786,2.947,28.522,1.17
					c2.736-1.777,4.329-12.014-1.473-13.741c-5.802-1.727-26.308-2.947-29.118-2.284
					C104.414,430.091,101.133,433.028,101.524,437.18z"/>
			</g>
			<g>
				<g>
					<path style="fill:#421B36;" d="M119.775,444.982c-2.805-4.164-2.861-9.799-0.13-14.013c0.439-0.677-0.643-1.304-1.079-0.631
						c-2.957,4.562-2.909,10.764,0.13,15.275C119.143,446.277,120.226,445.652,119.775,444.982L119.775,444.982z"/>
				</g>
			</g>
		</g>
	</g>
</g>
<g id="Clipboard">
	<g>
		<g>
			<path style="fill:#421B36;" d="M128.001,59.879c0,0-8.406,268.536,1.512,271.184c16.739,4.468,186.5,9.637,193.412-1.01
				c6.912-10.647,9.593-259.522,5.373-269.791C324.78,51.698,128.049,54.259,128.001,59.879z"/>
		</g>
		<g>
			<g>
				<path style="fill:#FFFFFF;" d="M137.702,65.592c0,0-7.673,246.177,1.381,248.604c15.279,4.096,170.236,8.834,176.545-0.926
					c6.309-9.76,8.756-237.913,4.905-247.327C317.32,58.092,137.746,60.44,137.702,65.592z"/>
			</g>
			<g>
				<path style="fill:#8380FF;" d="M190.677,94.495c0,0-5.323,0.177-11.85,0.418c-0.244-6.208-0.483-11.205-0.63-11.598
					c-0.385-1.025-12.379-0.281-12.37,0.949c0,0,0.012,4.933,0.184,11.155c-5.837,0.252-10.504,0.497-10.876,0.65
					c-0.98,0.402-0.269,12.944,0.907,12.935c0,0,4.68-0.012,10.596-0.191c0.453,6.153,1.159,11.16,2.257,11.603
					c1.299,0.523,10.806,0.063,10.806,0.063s-0.168-5.52-0.397-12.307c5.982-0.473,10.882-1.215,11.311-2.378
					C191.117,104.437,190.677,94.495,190.677,94.495z"/>
			</g>
			<g>
				<path style="fill:#A0D2F4;" d="M217.871,90.753c0,0,0.092,7.843,0.968,7.974c3.95,0.593,91.165,0.83,91.753-1.214
					c0.315-1.097,0.512-8.031-0.878-8.075C305.801,89.314,218.065,88.806,217.871,90.753z"/>
			</g>
			<g>
				<g>
					<path style="fill:#421B36;" d="M266.975,106.857c13.509,0,27.017,0,40.526,0c0.804,0,0.806-1.25,0-1.25
						c-13.509,0-27.017,0-40.526,0C266.17,105.607,266.169,106.857,266.975,106.857L266.975,106.857z"/>
				</g>
			</g>
			<g>
				<g>
					<path style="fill:#421B36;" d="M239.884,113.687c17.625,0,35.251,0,52.876,0c5.048,0,10.095,0,15.143,0
						c0.804,0,0.806-1.25,0-1.25c-17.625,0-35.25,0-52.876,0c-5.048,0-10.095,0-15.143,0
						C239.08,112.437,239.078,113.687,239.884,113.687L239.884,113.687z"/>
				</g>
			</g>
			<g>
				<g>
					<path style="fill:#8380FF;" d="M321.209,80.139c-0.293-7.572-0.685-12.443-1.182-13.659
						c-1.984-4.85-71.288-5.808-123.981-4.616c0.093,0.235,6.47,16.246,14.236,17.934c7.823,1.7,110.359,2.43,110.359,2.43
						L321.209,80.139z"/>
				</g>
				<g>
					<path style="fill:#8380FF;" d="M306.318,316.822c-0.551-2.687-4.98-21.987-19.081-25.464
						c-14.635-3.609-143.331-3.215-152.27-3.183c0.669,15.93,1.808,26.074,3.61,26.558
						C151.943,318.315,272.18,322.39,306.318,316.822z"/>
				</g>
			</g>
			<g>
				<g>
					<path style="fill:#421B36;" d="M136.083,65.602c-0.048,1.53-0.093,3.061-0.139,4.591c-0.125,4.221-0.245,8.443-0.362,12.664
						c-0.177,6.397-0.346,12.795-0.508,19.193c-0.204,8.059-0.397,16.118-0.578,24.177c-0.206,9.205-0.397,18.411-0.57,27.617
						c-0.185,9.879-0.349,19.758-0.486,29.638c-0.138,9.954-0.249,19.907-0.321,29.862c-0.069,9.554-0.104,19.108-0.081,28.662
						c0.02,8.673,0.085,17.347,0.238,26.018c0.126,7.205,0.307,14.41,0.632,21.608c0.237,5.262,0.524,10.533,1.104,15.769
						c0.31,2.801,0.484,6.055,1.713,8.648c0.371,0.783,0.811,1.189,1.658,1.387c1.677,0.392,3.404,0.596,5.111,0.802
						c6.067,0.734,12.177,1.14,18.275,1.522c8.771,0.551,17.552,0.955,26.334,1.29c10.303,0.392,20.609,0.679,30.918,0.871
						c10.54,0.196,21.082,0.294,31.624,0.255c9.616-0.036,19.234-0.176,28.844-0.545c7.494-0.288,15.004-0.671,22.456-1.534
						c2.609-0.302,5.221-0.655,7.792-1.202c1.66-0.353,3.391-0.757,4.904-1.553c2.052-1.079,2.298-3.326,2.655-5.42
						c0.738-4.334,1.1-8.74,1.45-13.119c0.536-6.711,0.917-13.434,1.253-20.157c0.421-8.456,0.754-16.917,1.044-25.378
						c0.33-9.644,0.601-19.291,0.832-28.938c0.247-10.297,0.448-20.595,0.612-30.894c0.164-10.284,0.29-20.569,0.378-30.855
						c0.083-9.736,0.132-19.472,0.136-29.208c0.004-8.61-0.026-17.219-0.115-25.829c-0.071-6.906-0.176-13.813-0.375-20.717
						c-0.134-4.639-0.279-9.286-0.649-13.913c-0.105-1.316-0.217-2.64-0.444-3.941c-0.136-0.781-0.282-1.496-0.949-1.995
						c-0.897-0.67-2.136-0.944-3.204-1.195c-1.922-0.453-3.885-0.728-5.842-0.976c-6.125-0.776-12.306-1.143-18.469-1.457
						c-8.368-0.426-16.746-0.668-25.123-0.834c-9.654-0.191-19.311-0.271-28.967-0.278c-10.023-0.007-20.045,0.068-30.067,0.221
						c-9.347,0.142-18.694,0.352-28.037,0.658c-7.758,0.254-15.516,0.567-23.265,1.036c-5.238,0.317-10.497,0.65-15.699,1.364
						C140.681,63.67,136.155,63.831,136.083,65.602c-0.033,0.804,1.217,0.803,1.25,0c-0.009,0.215-0.115,0.182-0.033,0.187
						c0.004,0-0.131,0.055,0.033-0.014c0.074-0.031,0.141-0.079,0.216-0.111c-0.116,0.049,0.279-0.102,0.425-0.148
						c0.246-0.078,0.497-0.141,0.747-0.201c1.507-0.361,3.056-0.558,4.592-0.743c5.498-0.662,11.039-0.997,16.566-1.308
						c7.911-0.444,15.83-0.745,23.749-0.988c9.376-0.287,18.756-0.482,28.135-0.61c9.907-0.135,19.816-0.195,29.725-0.174
						c9.506,0.02,19.013,0.113,28.517,0.319c8.174,0.177,16.348,0.43,24.512,0.871c5.892,0.319,11.807,0.681,17.657,1.473
						c1.8,0.244,3.612,0.52,5.37,0.985c0.504,0.133,1.286,0.38,1.578,0.514c0.438,0.2,0.628,0.317,0.824,0.526
						c-0.007-0.007-0.008-0.059,0.032,0.101c0.039,0.154,0.086,0.305,0.123,0.459c0.096,0.41,0.177,0.963,0.22,1.288
						c0.18,1.335,0.301,2.936,0.398,4.372c0.331,4.889,0.476,9.791,0.602,14.688c0.183,7.082,0.278,14.167,0.34,21.251
						c0.077,8.692,0.097,17.386,0.085,26.078c-0.014,9.739-0.07,19.478-0.161,29.216c-0.095,10.222-0.227,20.443-0.397,30.664
						c-0.168,10.141-0.374,20.282-0.624,30.422c-0.235,9.498-0.508,18.995-0.841,28.491c-0.291,8.292-0.626,16.583-1.049,24.87
						c-0.334,6.524-0.712,13.048-1.248,19.559c-0.342,4.159-0.679,8.353-1.428,12.463c-0.176,0.968-0.419,2.256-0.759,3.021
						c-0.115,0.259-0.222,0.457-0.509,0.688c-0.225,0.181-0.968,0.586-1.352,0.745c-4.225,1.747-9.206,2.081-13.7,2.536
						c-7.707,0.781-15.458,1.139-23.198,1.396c-9.689,0.323-19.384,0.436-29.078,0.445c-10.481,0.01-20.962-0.107-31.441-0.322
						c-10.057-0.206-20.113-0.501-30.165-0.901c-8.55-0.34-17.099-0.747-25.638-1.303c-5.826-0.38-11.669-0.774-17.462-1.519
						c-1.486-0.191-2.995-0.384-4.445-0.773c0.041,0.011-0.019-0.012-0.022-0.016c-0.193-0.225-0.064-0.035-0.179-0.215
						c-0.274-0.425-0.288-0.524-0.433-0.95c-1.013-2.969-1.249-6.265-1.547-9.364c-0.53-5.495-0.803-11.015-1.025-16.529
						c-0.296-7.353-0.46-14.71-0.571-22.068c-0.132-8.699-0.184-17.4-0.193-26.1c-0.01-9.542,0.033-19.085,0.11-28.627
						c0.08-9.883,0.196-19.765,0.338-29.648c0.14-9.721,0.305-19.442,0.491-29.163c0.173-9.058,0.363-18.115,0.568-27.172
						c0.179-7.892,0.369-15.784,0.57-23.675c0.159-6.224,0.324-12.448,0.497-18.672c0.113-4.055,0.229-8.109,0.349-12.163
						c0.041-1.385,0.082-2.771,0.126-4.156C137.358,64.797,136.108,64.798,136.083,65.602z"/>
				</g>
			</g>
			<g>
				<path style="fill:#A0D2F4;" d="M152.625,137.231c0,0-2.217,7.479,0,8.37c2.217,0.891,114.012,1.411,115.596-0.615
					c1.583-2.026,0-5.193,0-6.552C268.221,137.074,152.625,137.231,152.625,137.231z"/>
			</g>
			<g>
				<path style="fill:#A0D2F4;" d="M160.206,164.023c0,0-0.657,7.479,0,8.37c0.657,0.891,33.777,1.411,34.246-0.615s0-5.193,0-6.552
					S160.206,164.023,160.206,164.023z"/>
			</g>
			<g>
				<path style="fill:#A0D2F4;" d="M160.206,181.66c0,0-0.657,7.479,0,8.37c0.657,0.891,33.777,1.411,34.246-0.615
					c0.469-2.026,0-5.193,0-6.552C194.452,181.503,160.206,181.66,160.206,181.66z"/>
			</g>
			<g>
				<path style="fill:#A0D2F4;" d="M150.993,272.022c0,0-2.942,7.479,0,8.37c2.942,0.891,151.308,1.411,153.409-0.615
					s0-5.193,0-6.552S150.993,272.022,150.993,272.022z"/>
			</g>
			<g>
				<path style="fill:#421B36;" d="M255.837,262.468c-10.48,0-21.453-0.071-31.952-0.19c-25.3-0.287-73.674-1.226-75.664-2.728
					l-0.196-0.148l-0.003-0.245c-0.401-35.054-0.588-74.817,1.063-103.954l0.017-0.302l0.275-0.125
					c2.973-1.35,52.29-1.205,80.964-0.906c28.662,0.298,77.912,1.172,80.701,2.558c0.416,0.207,0.728,0.737,1.012,1.719
					c3.565,12.352,1.549,98.126-0.808,101.987c-0.176,0.287-0.556,0.528-1.839,0.773
					C303.363,262.056,281.024,262.468,255.837,262.468z M149.019,258.824c3.45,0.982,39.677,2.124,80.59,2.513
					c46.572,0.442,79.051-0.268,80.818-1.767c1.022-1.688,2.2-25.828,2.486-51.616c0.375-33.774-0.893-49.767-2.317-50.633
					c-4.339-2.155-152.047-3.688-160.531-1.72C148.441,184.589,148.622,224.003,149.019,258.824z"/>
			</g>
			<g>
				<g>
					<path style="fill:#8380FF;" d="M256.35,230.325c-1.018,0.068-1.617,0.874-1.628,1.875c-0.013,1.235,0.939,2.047,2.107,2.212
						c2.945,0.415,6.337-1.938,8.201-3.992c1.846-2.035,3.949-5.805,1.165-8.001c-2.67-2.106-6.616-0.065-9.215,1.189
						c-3.256,1.572-6.265,3.66-8.9,6.134c-2.603,2.443-5.026,5.326-6.158,8.766c-1.017,3.089-0.633,6.429,1.458,8.982
						c2.246,2.741,5.699,3.939,9.154,4.101c7.276,0.342,14.799-2.55,20.5-6.952c2.22-1.713,5.699-4.709,3.795-7.847
						c-1.835-3.024-5.847-1.973-8.356-0.554c-2.621,1.482-4.893,4.488-3.706,7.625c1.266,3.346,5.224,3.623,8.258,3.406
						c7.135-0.509,14.852-2.667,18.801-9.162c1.37-2.254,2.52-6.763-0.972-7.852c-1.523-0.475-2.998,0.518-4.209,1.33
						c-1.286,0.863-2.53,1.907-3.289,3.281c-1.487,2.69-0.65,6.077,1.51,8.153c2.493,2.396,6.22,2.706,9.453,2.024
						c2.073-0.437,4.038-1.259,5.987-2.072c0.732-0.305,0.411-1.515-0.332-1.205c-4.642,1.936-12.363,4.641-15.451-1.269
						c-1.368-2.618-0.482-5.246,1.698-7.055c0.938-0.778,2.494-2.029,3.74-2.021c2.006,0.014,2.219,2.461,1.787,3.929
						c-1.552,5.282-7.384,8.49-12.341,9.722c-2.79,0.694-5.857,1.151-8.741,1.019c-2.999-0.137-5.905-2.195-4.657-5.517
						c0.956-2.547,4.546-4.667,7.238-4.515c1.546,0.087,2.98,1.203,2.828,2.861c-0.132,1.439-1.286,2.602-2.311,3.514
						c-4.026,3.579-9.086,6.071-14.335,7.23c-5.183,1.144-12.12,1.429-15.501-3.516c-3.412-4.991,0.418-10.863,3.999-14.511
						c2.178-2.219,4.646-4.142,7.335-5.704c1.178-0.685,2.397-1.303,3.649-1.842c1.486-0.639,3.265-1.47,4.917-1.305
						c2.003,0.2,2.843,1.925,2.228,3.734c-0.484,1.425-1.508,2.687-2.589,3.709c-1.13,1.068-2.482,1.93-3.943,2.468
						c-0.616,0.227-1.278,0.451-1.937,0.491c-0.398,0.024-0.777,0.013-1.12-0.212c-0.255-0.167-0.984-1.344-0.116-1.402
						C257.149,231.521,257.155,230.271,256.35,230.325L256.35,230.325z"/>
				</g>
			</g>
			<g>
				<path style="fill:#A0D2F4;" d="M163.413,304.703c0,3.4-2.635,6.155-5.887,6.155c-3.251,0-5.887-2.756-5.887-6.155
					c0-3.4,2.635-6.155,5.887-6.155C160.778,298.548,163.413,301.304,163.413,304.703z"/>
			</g>
			<g>
				<g>
					<g>
						<path style="fill:#421B36;" d="M169.942,304.055c3.232,0,6.464,0,9.695,0c0.804,0,0.806-1.25,0-1.25c-3.232,0-6.464,0-9.695,0
							C169.138,302.805,169.137,304.055,169.942,304.055L169.942,304.055z"/>
					</g>
				</g>
				<g>
					<g>
						<path style="fill:#421B36;" d="M182.876,304.055c3.232,0,6.464,0,9.695,0c0.804,0,0.806-1.25,0-1.25c-3.232,0-6.464,0-9.695,0
							C182.072,302.805,182.071,304.055,182.876,304.055L182.876,304.055z"/>
					</g>
				</g>
				<g>
					<g>
						<path style="fill:#421B36;" d="M195.28,304.055c3.232,0,6.464,0,9.695,0c0.804,0,0.806-1.25,0-1.25c-3.232,0-6.464,0-9.695,0
							C194.476,302.805,194.475,304.055,195.28,304.055L195.28,304.055z"/>
					</g>
				</g>
				<g>
					<g>
						<path style="fill:#421B36;" d="M169.942,308.26c11.346,0,22.693,0,34.039,0c0.804,0,0.806-1.25,0-1.25
							c-11.346,0-22.693,0-34.039,0C169.138,307.01,169.137,308.26,169.942,308.26L169.942,308.26z"/>
					</g>
				</g>
			</g>
			<g>
				<path style="fill:#A0D2F4;" d="M240.355,304.703c0,3.4-2.636,6.155-5.887,6.155c-3.251,0-5.887-2.756-5.887-6.155
					c0-3.4,2.635-6.155,5.887-6.155C237.719,298.548,240.355,301.304,240.355,304.703z"/>
			</g>
			<g>
				<g>
					<g>
						<path style="fill:#421B36;" d="M246.884,304.055c3.232,0,6.464,0,9.695,0c0.804,0,0.806-1.25,0-1.25c-3.232,0-6.464,0-9.695,0
							C246.079,302.805,246.078,304.055,246.884,304.055L246.884,304.055z"/>
					</g>
				</g>
				<g>
					<g>
						<path style="fill:#421B36;" d="M259.818,304.055c3.232,0,6.464,0,9.695,0c0.804,0,0.806-1.25,0-1.25c-3.232,0-6.464,0-9.695,0
							C259.013,302.805,259.012,304.055,259.818,304.055L259.818,304.055z"/>
					</g>
				</g>
				<g>
					<g>
						<path style="fill:#421B36;" d="M272.222,304.055c3.232,0,6.464,0,9.695,0c0.804,0,0.806-1.25,0-1.25c-3.232,0-6.464,0-9.695,0
							C271.417,302.805,271.416,304.055,272.222,304.055L272.222,304.055z"/>
					</g>
				</g>
				<g>
					<g>
						<path style="fill:#421B36;" d="M246.884,308.26c11.346,0,22.693,0,34.039,0c0.804,0,0.806-1.25,0-1.25
							c-11.346,0-22.693,0-34.039,0C246.079,307.01,246.078,308.26,246.884,308.26L246.884,308.26z"/>
					</g>
				</g>
			</g>
			<g>
				<g>
					<path style="fill:#421B36;" d="M203.699,168.476c17.413,0,34.826,0,52.239,0c4.975,0,9.95,0,14.925,0
						c0.804,0,0.806-1.25,0-1.25c-17.413,0-34.826,0-52.239,0c-4.975,0-9.95,0-14.925,0
						C202.895,167.226,202.894,168.476,203.699,168.476L203.699,168.476z"/>
				</g>
			</g>
			<g>
				<g>
					<path style="fill:#421B36;" d="M232.081,201.217c7.693,0,15.386,0,23.078,0c0.804,0,0.806-1.25,0-1.25
						c-7.693,0-15.386,0-23.078,0C231.277,199.967,231.276,201.217,232.081,201.217L232.081,201.217z"/>
				</g>
			</g>
			<g>
				<g>
					<path style="fill:#421B36;" d="M262.083,201.217c11.717,0,23.433,0,35.15,0c0.804,0,0.806-1.25,0-1.25
						c-11.717,0-23.433,0-35.15,0C261.279,199.967,261.278,201.217,262.083,201.217L262.083,201.217z"/>
				</g>
			</g>
			<g>
				<g>
					<path style="fill:#421B36;" d="M206.798,186.301c14.246,0,28.493,0,42.739,0c0.804,0,0.806-1.25,0-1.25
						c-14.246,0-28.493,0-42.739,0C205.993,185.051,205.992,186.301,206.798,186.301L206.798,186.301z"/>
				</g>
			</g>
			<g>
				<g>
					<g>
						<path style="fill:#421B36;" d="M159.809,201.214c17.413,0,34.826,0,52.239,0c4.975,0,9.95,0,14.925,0
							c0.804,0,0.806-1.25,0-1.25c-17.413,0-34.826,0-52.239,0c-4.975,0-9.95,0-14.925,0
							C159.004,199.964,159.003,201.214,159.809,201.214L159.809,201.214z"/>
					</g>
				</g>
				<g>
					<g>
						<g>
							<path style="fill:#421B36;" d="M159.809,217.143c17.413,0,34.826,0,52.239,0c4.975,0,9.95,0,14.925,0
								c0.804,0,0.806-1.25,0-1.25c-17.413,0-34.826,0-52.239,0c-4.975,0-9.95,0-14.925,0
								C159.004,215.893,159.003,217.143,159.809,217.143L159.809,217.143z"/>
						</g>
					</g>
					<g>
						<g>
							<path style="fill:#421B36;" d="M232.081,217.146c7.693,0,15.386,0,23.078,0c0.804,0,0.806-1.25,0-1.25
								c-7.693,0-15.386,0-23.078,0C231.277,215.896,231.276,217.146,232.081,217.146L232.081,217.146z"/>
						</g>
					</g>
					<g>
						<g>
							<path style="fill:#421B36;" d="M262.083,216.404c11.717,0,23.433,0,35.15,0c0.804,0,0.806-1.25,0-1.25
								c-11.717,0-23.433,0-35.15,0C261.279,215.154,261.278,216.404,262.083,216.404L262.083,216.404z"/>
						</g>
					</g>
				</g>
				<g>
					<g>
						<g>
							<path style="fill:#421B36;" d="M274.317,208.841c7.639,0,15.277,0,22.916,0c0.804,0,0.806-1.25,0-1.25
								c-7.639,0-15.277,0-22.916,0C273.513,207.591,273.512,208.841,274.317,208.841L274.317,208.841z"/>
						</g>
					</g>
					<g>
						<g>
							<path style="fill:#421B36;" d="M159.809,208.841c8.638,0,17.275,0,25.913,0c0.804,0,0.806-1.25,0-1.25
								c-8.638,0-17.275,0-25.913,0C159.004,207.591,159.003,208.841,159.809,208.841L159.809,208.841z"/>
						</g>
					</g>
					<g>
						<g>
							<path style="fill:#421B36;" d="M191.891,208.841c20.045,0,40.091,0,60.136,0c5.633,0,11.265,0,16.898,0
								c0.804,0,0.806-1.25,0-1.25c-20.045,0-40.091,0-60.136,0c-5.633,0-11.265,0-16.898,0
								C191.087,207.591,191.086,208.841,191.891,208.841L191.891,208.841z"/>
						</g>
					</g>
				</g>
				<g>
					<g>
						<path style="fill:#421B36;" d="M159.809,224.968c14.246,0,28.493,0,42.739,0c0.804,0,0.806-1.25,0-1.25
							c-14.246,0-28.493,0-42.739,0C159.004,223.718,159.003,224.968,159.809,224.968L159.809,224.968z"/>
					</g>
				</g>
			</g>
		</g>
		<g>
			<path style="fill:#421B36;" d="M197.097,44.979c-0.108,1.375-3.326,22.321,2.306,22.749c5.632,0.428,62.828,1.818,63.883,0
				c1.056-1.818,3.782-22.295-1.104-22.749C257.296,44.525,197.339,41.908,197.097,44.979z"/>
		</g>
	</g>
</g>
<g id="Character_00000100346306975264444380000006491072977724084926_">
	<g>
		<g>
			<g>
				<path style="fill:#A0D2F4;" d="M306.966,199.485c0,0,15.591-57.156,31.975-60.441c16.383-3.285-10.015,72.556-10.015,72.556
					L306.966,199.485z"/>
			</g>
			<g>
				<g>
					<path style="fill:#A0D2F4;" d="M350.619,133.105c-6.776,0.995-13.103,5.992-15.12,10.7c0,0-7.524,50.201-7.944,56.335
						c-0.42,6.134-12.639,117.739-5.919,125.928c6.72,8.19,19.701,0.015,19.701,0.015l14.7-193.137"/>
				</g>
				<g>
					<g>
						<path style="fill:#421B36;" d="M410.841,419.145c-0.248,0.761-0.471,10.694,3.033,18.016
							c3.504,7.323-16.747,10.297-16.747,10.297s-4.402-20.137-6.406-26.208C388.719,415.178,410.841,419.145,410.841,419.145z"/>
					</g>
				</g>
				<g>
					<g>
						<path style="fill:#8380FF;" d="M435.876,460.75c0,0,0.044,2.38-0.43,4.528c-0.474,2.148-8.543,3.436-19.147,3.06
							c-10.604-0.376-16.675-4.799-17.105-5.285c-0.43-0.486-1.471-7.818-1.471-7.818L435.876,460.75z"/>
					</g>
				</g>
				<g>
					<g>
						<path style="fill:#421B36;" d="M413.386,436.603c0.389,0.277,10.8,13.656,14.172,15.668c3.372,2.011,8.703,4.956,8.305,9.232
							c-0.399,4.276-20.362,3.73-28.125,2c-7.764-1.73-7.595-0.859-8.92-3.319c-1.325-2.46-1.684-12.6-1.733-13.978
							C397.035,444.828,401.815,428.364,413.386,436.603z"/>
					</g>
				</g>
				<g>
					<g>
						<g>
							<g>
								<path style="fill:#421B36;" d="M329.381,446.993c0.813-0.52,1.821-0.809,2.649-1.465c3.77-2.987,7.313-7.553,9.13-11.852
									c2.216-5.243-2.989-26.077-3.465-26.61l22.407,6.005c0,0-2.622,18.477-2.147,24.477c0.476,6.001,4.707,20.918,2.687,24.451
									c-2.02,3.533-28.55,6.865-38.471,7.171c-15.412,0.475-20.51-6.357-20.495-8.331
									C301.686,459.485,324.866,449.881,329.381,446.993z"/>
							</g>
						</g>
					</g>
				</g>
				<g>
					<g>
						<path style="fill:#8380FF;" d="M330.892,271.575c0.616-13.392-1.258-29.539,1.494-40.564
							c1.786-7.154,5.024-22.203,5.024-22.203l47.369-0.619c0,0,10.742,14.245,15.428,30.811c4.76,16.826,5.259,32.066,8.725,55.017
							c3.215,21.29,4.974,43.064,5.57,50.714c0.627,8.06,7.47,74.498,7.324,80.341c-0.141,5.624-38.033,5.125-41.731,0
							c-3.339-4.628-16.512-135.492-18.596-155.88l0.853-0.147c0.466-0.257,3.838,75.557,3.838,75.557l3.339,81.842
							c-2.157,3.968-40.711,3.413-41.79-0.224C326.659,422.581,330.276,284.966,330.892,271.575z"/>
					</g>
				</g>
				<g style="opacity:0.2;">
					<path style="fill:#421B36;" d="M413.373,331.574l0.011,0l0.057,0.674C413.389,332.05,413.367,331.822,413.373,331.574z
						 M411.328,333.295c-1.109,0.825-0.887,1.032-0.48,2.039c1.048,1.221,2.352,0.069,2.084-1.269
						C412.481,333.636,411.975,333.307,411.328,333.295z M414.253,343.881c0.065-0.027,0.108-0.063,0.169-0.093l-0.209-2.46
						c-0.135-0.02-0.258-0.049-0.412-0.052c-0.287,0.61-0.559,1.187-0.85,1.806C413.401,343.358,413.802,343.604,414.253,343.881z
						 M380.262,346.294c0.398-0.234,0.33-0.889,0.457-1.316c-0.312-0.292-0.756-1.376-1.247-0.924
						c-0.59,0.449-1.031,0.489-1.158,1.357C378.462,346.507,379.399,346.43,380.262,346.294z M404.862,343.149
						c0.377-0.966-0.575-1.705-1.509-1.898C401.21,342.441,403.549,344.394,404.862,343.149z M401.736,333.589
						c-0.863-0.83-1.574,0.076-2.159,0.651c0.194,0.802,0.445,1.091,1.089,1.649c0.439-0.288,0.846-0.511,1.334-0.716
						C401.84,334.62,401.756,334.085,401.736,333.589z M409.165,335.936c-0.514,0.318-1.002,0.619-1.607,0.994
						C408.582,340.331,411.477,337.362,409.165,335.936z M377.191,341.417c0.105,0.64,0.222,1.271,0.35,1.875
						C378.237,342.872,378.298,341.961,377.191,341.417z M398.277,335.943c-0.512,0.135-0.914,0.362-1.205,0.969
						c0.249,1.104,0.974,1.966,2.088,1.07c0.1-0.313,0.198-0.621,0.312-0.98C399.049,336.693,398.764,336.199,398.277,335.943z
						 M401.969,344.619c-0.286-0.631-1.794-0.351-2.121,0.19c-0.273,0.575,0.513,0.832,0.453,1.382
						c0.07,0.108,0.145,0.185,0.224,0.241c0.316-0.036,0.63-0.072,0.943-0.108c0.295-0.172,0.595-0.41,0.869-0.575
						C402.16,345.324,401.667,345.078,401.969,344.619z M383.73,339.45c-0.03,0.521,0.408,0.938,0.447,1.514
						c1.217,0.365,1.421-0.249,1.894-1.158C385.829,338.674,384.193,338.354,383.73,339.45z M381.064,336.684
						c0.05,0.403,0.088,0.722,0.125,1.026c0.771,0.624,1.441,0.848,2.266,0.142C383.35,336.462,382.027,335.327,381.064,336.684z
						 M380.694,334.401c-0.777-1.099-1.794-1.372-2.396,0.061C378.887,336.399,380.015,336.182,380.694,334.401z M396.858,334.547
						c-0.43-1.223-1.615-1.489-2.32-0.386C394.161,335.79,396.521,336.203,396.858,334.547z M406.909,333.489
						c-0.744,0.21-1.337,0.531-1.987,1.032C405.478,337.073,409.149,334.688,406.909,333.489z M407.371,345.601
						c0.056-1-0.169-1.645-1.274-1.429c-0.8,0.019-0.692,0.766-1.096,1.394c0.099,0.114,0.202,0.217,0.307,0.31
						c0.709-0.085,1.388-0.167,2.043-0.246C407.357,345.618,407.364,345.612,407.371,345.601z M378.176,340.019
						c0.179,0.266,0.342,0.506,0.486,0.719c0.331,0.075,0.618,0.14,0.996,0.226c0.372-0.287,0.886-0.307,1.065-0.746
						C380.207,338.643,378.653,338.131,378.176,340.019z M412.564,344.545c-0.72-1.121-1.432-0.213-2.07,0.479
						c0.024,0.075,0.055,0.139,0.084,0.206c0.846-0.106,1.569-0.198,2.168-0.274C412.702,344.826,412.646,344.691,412.564,344.545z
						 M383.415,342.927c-0.094-0.389-0.178-0.741-0.268-1.115C380.282,340.199,380.938,345.866,383.415,342.927z M397.731,343.437
						c0.987,0.398,2.269-0.735,1.478-1.635C397.702,340.487,396.617,342.039,397.731,343.437z M407.385,340.411
						c0.223-1.277-0.318-1.826-1.615-1.595c-0.244,0.375-0.44,0.677-0.657,1.012C405.374,340.93,406.58,341.13,407.385,340.411z
						 M410.665,340.513c0.506,0.652,2.209,0.788,2.092-0.572C412.35,337.994,410.257,338.597,410.665,340.513z M389.42,346.201
						c1.02,0.637,1.826-0.371,1.774-1.428C389.989,343.433,388.201,344.865,389.42,346.201z M381.057,347.435
						c-0.029,0.221-0.016,0.419,0.023,0.599c0.603,0.014,1.354,0.001,2.216-0.034C382.851,347.012,381.789,346.286,381.057,347.435z
						 M413.957,338.316l-0.153-1.799c-0.313,0.201-0.551,0.488-0.591,1.018C413.44,337.774,413.695,338.041,413.957,338.316z
						 M392.503,347.032c0,0.083,0,0.171,0,0.255c0.454-0.044,0.911-0.09,1.373-0.137c-0.013-0.075-0.023-0.142-0.039-0.224
						C393.43,346.849,392.847,346.724,392.503,347.032z M399.251,332.299c-0.005-0.021-0.008-0.035-0.013-0.055l-2.107,0.1
						C397.605,333.303,398.659,333.011,399.251,332.299z M387.544,332.797l-0.409,0.019c0.051,0.039,0.101,0.078,0.152,0.116
						C387.379,332.884,387.459,332.842,387.544,332.797z M391.788,342.9c0.61,2.586,3.581-0.481,1.135-1.279
						C392.438,341.914,391.906,342.148,391.788,342.9z M390.379,340.981c0.368-0.138,0.826-0.086,1.073-0.504
						c-0.058-2.096-1.889-1.814-2.359-0.073C389.37,340.994,389.993,340.711,390.379,340.981z M383.825,344.47
						c0,0.61,0,1.07,0,1.606c0.571,0.132,1.1,0.146,1.631,0.034c0.153-0.401,0.292-0.762,0.403-1.053
						c-0.177-0.41-0.324-0.749-0.471-1.089C385.042,344.233,384.25,344.221,383.825,344.47z M399.594,339.827
						c0.442,1.837,2.899,1.085,2.153-0.865C401.11,338.652,399.806,339.193,399.594,339.827z M410.002,332.377
						c0.033-0.243,0.031-0.457,0.003-0.643l-1.966,0.093c-0.022,0.081-0.043,0.164-0.057,0.254
						C408.034,333.446,409.314,332.923,410.002,332.377z M387.987,343.488c1.212-0.184,0.355-1.682-0.216-2.209
						C385.917,341.657,386.138,343.59,387.987,343.488z M376.609,336.005c-0.029,0.016-0.052,0.04-0.079,0.059
						c0.059,0.653,0.134,1.398,0.225,2.189C378.197,337.914,378.024,336.452,376.609,336.005z M404.207,332.408
						c0.373-0.041,0.493-0.209,0.496-0.423l-2.122,0.1C403.371,332.687,402.849,333.488,404.207,332.408z M384.935,333.316
						c-0.757,0.199-1.05,0.735-1.278,1.413C384.794,336.957,386.743,334.3,384.935,333.316z M409.361,343.653
						c1.222-0.83,0.646-2.028-0.669-2.102C407.457,342.176,408.163,343.595,409.361,343.653z M394.443,345.264
						c0.252,0.847,1.653,1.38,2.09,0.437c-0.081-0.412-0.15-0.763-0.243-1.235C395.663,343.804,394.352,344.497,394.443,345.264z
						 M388.59,347.629c-0.356-0.222-0.689-0.43-1.095-0.684c-0.377,0.238-0.736,0.464-1.073,0.677
						c0.002,0.069,0.01,0.129,0.016,0.193c0.686-0.05,1.401-0.106,2.148-0.169C388.587,347.64,388.589,347.635,388.59,347.629z
						 M404.176,338.077c1.289-1.475,0.022-1.994-1.185-1.549c-0.281,0.492-0.708,0.927-0.131,1.549
						C403.337,338.077,403.772,338.077,404.176,338.077z M386.829,336.263c-0.987,0.748-0.311,1.732,0.739,1.869
						C388.948,337.441,388.26,335.563,386.829,336.263z M395.5,340.751c0.008-0.004,0.015-0.007,0.023-0.011l0,0
						C395.516,340.744,395.508,340.747,395.5,340.751z M395.523,340.728c0,0.004,0,0.009,0,0.012
						c0.153-0.077,0.307-0.153,0.461-0.229c0.148-0.186,0.296-0.372,0.459-0.578c-0.264-0.379-0.51-0.731-0.745-1.067
						c-1.006,0.319-1.006,0.319-1.385,1.821C394.973,340.945,394.973,340.945,395.523,340.728z M392.951,336.085
						c-0.442,0.377-1.581,0.668-1.067,1.375c0.442,0.383,0.842,1.113,1.51,0.805C393.745,337.482,393.894,336.739,392.951,336.085z
						 M389.877,333.668c-0.805,0.172-0.057,1.217,0.391,1.311C391.605,334.865,390.641,333.631,389.877,333.668z M395.523,340.728
						l-0.023,0.024c0.008-0.004,0.015-0.007,0.023-0.011C395.523,340.736,395.523,340.731,395.523,340.728z M395.523,340.74
						c0,0.135,0,0.269,0,0.435c0.398,0.093,0.735,0.15,1.068-0.06c-0.225-0.558-0.225-0.558-0.63-0.575l0.029-0.032
						c-0.002,0.001-0.004,0.002-0.006,0.003C395.831,340.587,395.676,340.663,395.523,340.74L395.523,340.74z M389.757,335.803
						c0.256,0,0.469,0,0.766,0C390.064,335.406,390.064,335.406,389.757,335.803z"/>
				</g>
				<g>
					<path style="fill:#8380FF;" d="M398.32,147.735c-2.696-8.399-10.11-14.394-18.891-15.231
						c-14.121-1.345-29.125-1.184-32.275,2.462c-8.064,9.333-13.359,43.231-13.906,54.595c-0.633,13.128-5.317,39.974-4.129,40.279
						c10.614,2.724,79.782,0.464,75.502,0l-6.51-47.155C398.257,173.075,401.714,158.312,398.32,147.735z"/>
				</g>
				<g>
					<path style="fill:#A0D2F4;" d="M383.538,132.947c0,0,13.308,3.47,15.509,5.417c1.082,0.957-0.412,39.598,5.764,77.891
						c7.697,47.723,23.233,99.153,23.528,107.982c0,0-10.835,13.348-52.989,10.256l-10.891-126.304c0,0,2.923-52.146,4.699-59.418
						c1.592-6.517,0.749-20.147,1.986-21.832C372.931,124.502,383.538,132.947,383.538,132.947z"/>
				</g>
				<g>
					<g>
						<path style="fill:#421B36;" d="M351.873,251.213c1.271,2.357,2.541,4.713,3.812,7.07c0.931,1.727,1.862,3.454,2.794,5.182
							c0.587,1.088,1.103,2.292,1.791,3.321c0.265,0.396,0.065,0.007,0.071,0.062c0.019,0.168,0.037,0.335,0.056,0.503
							c0.073,0.672,0.143,1.345,0.214,2.017c0.266,2.535,0.528,5.071,0.79,7.606c0.798,7.725,1.59,15.45,2.383,23.176
							c0.773,7.538,1.545,15.076,2.316,22.614c0.301,2.943,0.608,5.886,0.902,8.83c0.329,3.29,0.66,6.58,0.998,9.869
							c0.721,7,1.465,13.998,2.236,20.993c0.925,8.399,1.887,16.794,2.92,25.18c0.938,7.611,1.917,15.22,3.091,22.798
							c0.698,4.508,1.201,9.333,2.731,13.659c0.154,0.436,0.315,0.909,0.595,1.284c0.46,0.617,1.512,0.014,1.045-0.611
							c-0.652-0.875-0.885-2.301-1.158-3.445c-0.554-2.33-0.974-4.693-1.375-7.054c-1.209-7.124-2.158-14.294-3.071-21.461
							c-1.076-8.439-2.063-16.89-3.012-25.344c-0.838-7.469-1.642-14.943-2.421-22.418c-0.44-4.225-0.873-8.45-1.293-12.677
							c-0.208-2.098-0.426-4.195-0.64-6.292c-0.711-6.951-1.422-13.902-2.134-20.852c-0.821-8.017-1.644-16.034-2.47-24.05
							c-0.482-4.679-0.927-9.364-1.46-14.037c-0.174-1.527-1.396-3.051-2.108-4.371c-1.81-3.357-3.62-6.715-5.431-10.072
							c-0.375-0.696-0.751-1.393-1.126-2.089C352.549,249.915,351.503,250.526,351.873,251.213L351.873,251.213z"/>
					</g>
				</g>
				<g>
					<g>
						<path style="fill:#421B36;" d="M329.204,230.508c11.523,2.168,23.338,2.219,34.88,0.153c0.766-0.137,0.441-1.304-0.322-1.167
							c-11.316,2.026-22.94,1.973-34.237-0.153C328.764,229.198,328.438,230.364,329.204,230.508L329.204,230.508z"/>
					</g>
				</g>
				<g>
					<g>
						<path style="fill:#421B36;" d="M329.282,158.346c0.405,0.778,0.811,1.555,1.216,2.333c0.108,0.208,0.205,0.446,0.335,0.642
							c0.061,0.093,0.141,0.401,0.089,0.1c-0.056-0.327-0.028-0.014-0.049,0.051c-0.127,0.39-0.062,0.955-0.09,1.361
							c-0.057,0.836-0.116,1.672-0.176,2.507c-0.434,6.001-0.946,11.997-1.548,17.984c-1.133,11.278-2.985,22.448-4.34,33.696
							c-1.377,11.439-2.496,22.91-3.455,34.391c-1.044,12.499-1.902,25.021-2.361,37.557c-0.35,9.544-0.692,19.241,0.29,28.76
							c0.083,0.809,0.183,1.615,0.298,2.42c0.11,0.768,1.276,0.441,1.167-0.322c-1.279-8.963-0.929-18.242-0.664-27.26
							c0.365-12.416,1.17-24.819,2.158-37.199c0.939-11.767,2.053-23.522,3.412-35.248c1.243-10.735,3.039-21.392,4.216-32.133
							c0.727-6.633,1.325-13.28,1.835-19.933c0.143-1.863,0.278-3.726,0.403-5.59c0.071-1.054,0.03-1.426-0.475-2.396
							c-0.405-0.778-0.811-1.555-1.216-2.333C329.967,157.044,328.922,157.655,329.282,158.346L329.282,158.346z"/>
					</g>
				</g>
				<g>
					<g>
						<path style="fill:#421B36;" d="M371.986,208.841c0,0-2.272-18.024-1.354-19.073c0.919-1.049,1.835-0.015,1.835-0.015
							s0.833,17.264,1.336,18.886c0.503,1.623,6.173,5.796,10.806,6.36l0.11,1.55C384.719,216.549,372.828,213.919,371.986,208.841z
							"/>
					</g>
					<g>
						<path style="fill:#421B36;" d="M389.282,215.649c0.088,1.239-1.028,2.327-2.492,2.431c-1.464,0.104-2.722-0.816-2.81-2.055
							c-0.088-1.239,1.028-2.327,2.492-2.431C387.936,213.49,389.194,214.41,389.282,215.649z"/>
					</g>
					<g>
						<path style="fill:#421B36;" d="M375.329,217.736c0.088,1.239-1.028,2.327-2.492,2.431c-1.464,0.104-2.722-0.816-2.81-2.055
							c-0.088-1.239,1.028-2.327,2.492-2.431C373.983,215.578,375.241,216.498,375.329,217.736z"/>
					</g>
					<g>
						<path style="fill:#421B36;" d="M374.858,216.673c0.254,0.132,7.266-3.669,8.615-6.213c1.349-2.543,3.89-19.166,3.89-19.166
							l2.166-0.154c0,0-2.55,16.99-4.208,19.494c-1.658,2.504-5.728,6.158-10.037,7.626L374.858,216.673z"/>
					</g>
					<g>
						<path style="fill:#8380FF;" d="M384.634,132.569c0,0,0.953,6.295-0.112,10.624c-1.065,4.329-5.045,29.444-5.045,29.444
							l2.73-0.194c0,0,4.391-27.066,5.251-32.34c0.861-5.275-0.235-6.46-0.235-6.46S385.365,131.269,384.634,132.569z"/>
					</g>
					<g>
						<path style="fill:#8380FF;" d="M370.295,191.242c-0.171-0.103-0.149-0.951-0.136-1.15c0.016-0.264,0.044-0.655,0.092-1.145
							c0.417-4.29,2.322-16.194,10.67-17.236c10.2-1.273,10.453,17.761,8.907,19.184c-1.235,1.137-2.24,0.58-2.594,0.311
							c-0.087-0.067-0.131-0.165-0.119-0.275c0.181-1.733,1.576-17.172-6.293-16.743c-8.337,0.454-6.996,16.407-8.036,17.076
							C371.951,191.801,370.944,191.634,370.295,191.242z"/>
					</g>
				</g>
				<g>
					<g>
						<path style="fill:#A0D2F4;" d="M365.568,189.741c0,0,15.569-33.943,16.612-37.09c1.043-3.147-10.954-8.054-11.294-7.997
							c-0.34,0.057,10.044,2.22,11.296,1.901c3.006-0.765,2.244-12.611,1.703-13.745"/>
					</g>
					<g>
						<g>
							<path style="fill:#421B36;" d="M366.091,190.047c3.02-6.585,6.024-13.178,9.008-19.78c1.936-4.284,3.871-8.57,5.753-12.878
								c0.558-1.278,1.122-2.555,1.637-3.85c0.51-1.281,0.339-2.263-0.6-3.335c-1.702-1.944-4.288-3.219-6.571-4.334
								c-1.042-0.509-2.102-0.988-3.179-1.419c-0.444-0.178-1.088-0.554-1.568-0.315c-0.366,0.182-0.368,0.681-0.122,0.951
								c0.276,0.304,0.947,0.345,1.317,0.428c0.969,0.218,1.943,0.415,2.918,0.606c2.15,0.42,4.337,0.879,6.525,1.044
								c4.047,0.305,3.798-6.317,3.782-8.975c-0.01-1.76,0.123-4.025-0.585-5.685c-0.305-0.714-1.348-0.098-1.045,0.611
								c0.436,1.022,0.367,2.899,0.402,4.101c0.06,2.041,0.035,4.144-0.384,6.149c-0.263,1.259-0.593,2.684-2.021,2.599
								c-1.845-0.111-3.695-0.506-5.507-0.849c-1.063-0.201-2.125-0.413-3.183-0.641c-0.35-0.076-0.701-0.15-1.049-0.235
								c-0.315-0.077-0.567-0.287-0.314-0.009c-0.041,0.317-0.082,0.634-0.122,0.951c-0.412,0.205-0.457-0.018-0.04,0.179
								c0.307,0.145,0.644,0.244,0.958,0.374c0.954,0.394,1.893,0.828,2.818,1.285c2.017,0.997,4.194,2.101,5.801,3.709
								c0.977,0.978,0.974,1.577,0.501,2.742c-0.529,1.302-1.097,2.589-1.661,3.876c-3.694,8.424-7.524,16.789-11.342,25.158
								c-1.055,2.312-2.111,4.623-3.171,6.933C364.723,190.139,365.766,190.755,366.091,190.047L366.091,190.047z"/>
						</g>
					</g>
				</g>
				<g>
					<path style="fill:#FFAE7A;" d="M352.915,132.562c-0.18,0.037,2.053,15.763,4.204,14.933
						c2.151-0.83,13.238-14.548,13.238-14.548S357.701,131.569,352.915,132.562z"/>
				</g>
				<g>
					<path style="fill:#A0D2F4;" d="M371.943,126.517c0,0-22.543,3.266-26.174,5.678s-7.793,9.419-8.482,12.406
						c-0.689,2.987-4.128,45.256-4.039,44.96c2.783-9.269,12.224-49.157,15.873-53.002c3.795-3.998,22.822-4.42,22.822-4.42V126.517
						z"/>
				</g>
				<g>
					<g>
						<path style="fill:#421B36;" d="M333.554,187.995c0.32-5.048,0.652-10.096,0.995-15.143c0.257-3.79,0.519-7.58,0.804-11.369
							c0.169-2.247,0.206-4.578,0.589-6.802c0.286-1.661,2.329-3.138,3.705-4.113c0.896-0.635,1.828-1.221,2.782-1.764
							c0.324-0.185,0.651-0.367,0.984-0.535c0.137-0.069,0.574-0.198,0.314-0.193c-0.202-0.202-0.404-0.404-0.605-0.605
							c0,0.003,0,0.005,0,0.008c0.1-0.174,0.2-0.348,0.3-0.523c-0.581,0.369-1.97,0.59-2.772,0.787
							c-0.662,0.163-1.328,0.32-2.001,0.429c-0.203,0.033-0.576,0.15-0.776,0.089c-0.35-0.107-0.05,0.148-0.189-0.28
							c-0.522-1.611,0.004-3.524,0.579-5.044c0.906-2.394,2.401-4.536,4.118-6.416c0.524-0.574-0.329-1.433-0.856-0.856
							c-2.042,2.236-3.79,4.824-4.702,7.735c-0.332,1.061-0.558,2.197-0.534,3.314c0.016,0.711,0.084,1.953,0.633,2.487
							c0.831,0.808,3.133-0.066,4.049-0.291c0.621-0.152,3.372-0.47,3.361-1.44c-0.004-0.322-0.274-0.612-0.605-0.605
							c-0.364,0.008-0.74,0.262-1.052,0.424c-0.799,0.415-1.576,0.877-2.335,1.36c-1.672,1.064-3.416,2.268-4.646,3.848
							c-1.355,1.74-1.185,4.311-1.353,6.412c-0.607,7.599-1.095,15.208-1.592,22.815c-0.137,2.09-0.272,4.18-0.405,6.27
							C332.294,188.773,333.505,188.77,333.554,187.995L333.554,187.995z"/>
					</g>
				</g>
				<g>
					<g>
						<path style="fill:#421B36;" d="M377.478,412.912c14.147,2.191,28.586,1.833,42.604-1.073c0.762-0.158,0.44-1.325-0.322-1.168
							c-13.791,2.859-28.041,3.229-41.961,1.074C377.037,411.627,376.709,412.793,377.478,412.912L377.478,412.912z"/>
					</g>
				</g>
				<g>
					<g>
						<path style="fill:#421B36;" d="M328.039,410.582c13.231,2.213,26.705,2.64,40.046,1.233c0.767-0.081,0.775-1.292,0-1.211
							c-13.228,1.394-26.604,1.005-39.725-1.19C327.599,409.287,327.271,410.454,328.039,410.582L328.039,410.582z"/>
					</g>
				</g>
				<g>
					<path style="fill:#8380FF;" d="M302.026,462.038c0.312-0.441-2.73-5.151,9.205-10.692c7.3-3.39,13.88-8.247,19.235-6.639
						c5.354,1.609,19.82,18.383,19.82,18.383s-20.968,7.703-32.569,4.388C306.116,464.164,302.026,462.038,302.026,462.038z"/>
				</g>
				<g>
					<path style="fill:#8380FF;" d="M338.658,455.963c0.112-0.335,18.705-14.267,20.604-12.703c1.9,1.565,0.313,5.76,0.313,5.76
						l-19.63,10.805L338.658,455.963z"/>
				</g>
				<g>
					<path style="fill:#8380FF;" d="M301.987,460.399c0.487-0.361,0.965-0.633,1.841-1.115c0,0-0.032-0.103,0,0
						c0.313,0.216,9.337,4.746,26.214,4.799c17.163,0.051,31.195-9.408,31.195-9.408c0.187,2.285-0.008,6.446-0.567,7.42
						c-0.064,0.111-0.152,0.219-0.259,0.327c-0.217,0.223-0.53,0.444-0.922,0.661c-5.671,3.139-28.303,5.908-37.292,6.186
						c-11.85,0.368-17.476-3.547-19.569-6.288C301.582,461.537,301.484,460.772,301.987,460.399z"/>
				</g>
				<g>
					<path style="fill:#8380FF;" d="M399.472,461.819c0,0,4.699-16.837,19.9-18.01c15.201-1.174,21.391,19.07,16.074,21.469
						C430.129,467.677,406.587,471.042,399.472,461.819z"/>
				</g>
				<g>
					<g>
						<path style="fill:#421B36;" d="M301.417,459.56c2.833,2.828,6.786,4.195,10.593,5.142c4.204,1.046,8.557,1.454,12.884,1.41
							c8.931-0.092,17.242-2.636,25.551-5.703c0.725-0.267,0.411-1.438-0.322-1.167c-7.903,2.917-15.835,5.434-24.327,5.644
							c-4.222,0.104-8.466-0.208-12.59-1.143c-3.883-0.88-8.047-2.158-10.933-5.038C301.72,458.153,300.864,459.008,301.417,459.56
							L301.417,459.56z"/>
					</g>
				</g>
				<g>
					<g>
						<path style="fill:#421B36;" d="M342.959,451.213c-1.023,0.713-2.047,1.426-3.07,2.139c-0.917,0.639-1.899,1.234-2.743,1.971
							c-0.661,0.577-1.236,1.356-1.205,2.274c0.03,0.88,0.648,1.636,1.417,2.009c1.731,0.841,4.046,0.392,5.765-0.26
							c1.944-0.737,3.688-1.885,5.49-2.903c0.678-0.383,0.069-1.43-0.611-1.045c-2.798,1.581-5.859,3.859-9.268,3.367
							c-0.69-0.1-1.642-0.48-1.582-1.332c0.052-0.738,0.886-1.314,1.43-1.699c1.654-1.171,3.326-2.318,4.988-3.476
							C344.205,451.816,343.6,450.766,342.959,451.213L342.959,451.213z"/>
					</g>
				</g>
				<g>
					<path style="fill:#421B36;" d="M343.307,456.507c0,0.512-0.589,0.928-1.316,0.928c-0.727,0-1.316-0.415-1.316-0.928
						s0.589-0.928,1.316-0.928C342.718,455.579,343.307,455.995,343.307,456.507z"/>
				</g>
				<g>
					<g>
						<path style="fill:#421B36;" d="M399.711,461.392c12,4.445,25.334,4.757,37.532,0.893c0.74-0.234,0.424-1.404-0.322-1.167
							c-12.013,3.806-25.073,3.484-36.888-0.893C399.301,459.953,398.986,461.123,399.711,461.392L399.711,461.392z"/>
					</g>
				</g>
				<g>
					<g>
						<path style="fill:#421B36;" d="M350.348,82.388c2.898-2.268,5.507-3.992,8.97-5.319c0.265-0.102,0.166-0.487-0.118-0.429
							c-3.389,0.693-6.992,2.764-9.03,5.61C350.087,82.364,350.255,82.46,350.348,82.388L350.348,82.388z"/>
					</g>
				</g>
				<g>
					<path style="fill:#FFFFFF;" d="M374.835,156.237c0,0-10.618-1.518-10.979-0.21c-0.49,1.771-0.324,5.399,0.596,5.643
						c1.62,0.431,9.786,0.714,10.505-0.213C375.967,160.153,374.835,156.237,374.835,156.237z"/>
				</g>
			</g>
			<g>
				<g>
					<g>
						<path style="fill:#421B36;" d="M338.439,86.706c-1.404,1.368-2.501,3.146-2.67,5.099c-0.154,1.773,0.47,3.548,1.44,5.04
							c0.97,1.492,2.271,2.738,3.598,3.924l2.425-17.444C341.547,84.325,339.843,85.338,338.439,86.706z"/>
					</g>
					<g>
						<path style="fill:#421B36;" d="M342.523,87.231c-0.435-1.806,0.09-6.158,1.076-7.732c0.986-1.574,2.465-2.795,4.086-3.702
							c4.275-2.393,9.689-2.628,14.155-0.616c2.385,1.075,4.468,2.726,6.817,3.88c2.348,1.153,5.014,2.229,7.38,1.112l-1.782,4.672
							l-3.961,3.626"/>
					</g>
					<g>
						<path style="fill:#421B36;" d="M382.585,87.151c-1.282-0.85-2.855-1.128-4.386-1.275c1.233,0.001,2.414-0.883,2.76-2.066
							c0.346-1.183-0.173-2.565-1.212-3.227c-1.498-0.955-3.554-0.653-5.162,0.102c-3.451,1.62-4.974,1.749-8.264,0.385
							l9.746,18.665c1.819-0.307,3.761-0.676,5.07-1.976c1.309-1.3,1.488-3.867-0.117-4.777c1.358,0.724,3.181-0.412,3.476-1.922
							C384.792,89.55,383.867,88.001,382.585,87.151z"/>
					</g>
					<g>
						<g>
							<path style="fill:#FFAE7A;" d="M368.644,86.178c-9.602-9.527-26.276-5.226-30.109,7.746
								c-1.212,4.103-1.168,9.265,0.117,15.949c3.584,18.65,17.384,16.092,17.384,16.092l-1.075,8.87l2.543,10.594l12.853-12.483
								l2.142-14.825c2.157-3.488,4.239-17.74-0.747-26.982C370.798,89.371,370.05,87.573,368.644,86.178z"/>
						</g>
					</g>
					<g>
						<path style="fill:#421B36;" d="M354.311,79.561c10.021-2.219,22.054,4.599,24.09,10.566
							c5.804,17.009-5.902,27.994-5.902,27.994c2.525-7.019,3.265-11.969,0.945-19.258c0,0-6.806,4.84-6.838-2.238
							c-0.017-3.681-0.081-5.561-0.943-8.535c-2.783-9.592-18.617-5.056-18.617-5.056S346.648,81.258,354.311,79.561z"/>
					</g>
					<g>
						<g>
							<path style="fill:#421B36;" d="M343.345,99.546c0.104,0.688,0.691,1.17,1.311,1.077c0.62-0.094,1.039-0.727,0.935-1.416
								c-0.104-0.688-0.691-1.17-1.311-1.077S343.241,98.857,343.345,99.546z"/>
						</g>
					</g>
					<g>
						<g>
							<path style="fill:#421B36;" d="M355.601,97.631c0.104,0.688,0.691,1.17,1.311,1.077c0.62-0.094,1.039-0.727,0.936-1.416
								c-0.104-0.688-0.691-1.17-1.311-1.077C355.916,96.309,355.497,96.942,355.601,97.631z"/>
						</g>
					</g>
					<g>
						<g>
							<g>
								<path style="fill:#421B36;" d="M362.461,90.16c-1.279-0.513-2.944-0.615-4.303-0.492c-1.263,0.114-2.337,0.657-3.54,0.969
									c-0.694,0.18-1.027-0.814-0.536-1.22c2.472-2.04,6.114-1.313,8.658,0.042C363.159,89.681,362.924,90.346,362.461,90.16
									L362.461,90.16z"/>
							</g>
						</g>
					</g>
					<g style="opacity:0.2;">
						<g>
							<path style="fill:#421B36;" d="M358.145,101.884c0.154,1.02,1.876,1.607,3.847,1.31c1.971-0.297,3.444-1.366,3.29-2.386
								c-0.154-1.02-1.876-1.607-3.847-1.31C359.464,99.796,357.991,100.864,358.145,101.884z"/>
						</g>
					</g>
					<g style="opacity:0.2;">
						<g>
							<path style="fill:#421B36;" d="M340.096,104.879c0.154,1.02,1.876,1.607,3.847,1.31c1.971-0.297,3.444-1.366,3.29-2.386
								c-0.154-1.021-1.876-1.607-3.847-1.31C341.415,102.79,339.942,103.858,340.096,104.879z"/>
						</g>
					</g>
					<g>
						<g>
							<g>
								<path style="fill:#FFAE7A;" d="M373.423,98.723c2.091-1.648,3.705-1.264,4.756-0.704c1.051,0.56,1.807,1.574,2.262,2.675
									c0.756,1.83,0.71,4.047-0.395,5.69c-1.105,1.643-3.346,2.529-5.193,1.816L373.423,98.723z"/>
							</g>
						</g>
						<g>
							<g>
								<g>
									<path style="fill:#421B36;" d="M377.929,103.155c-0.356-0.161-1.137-0.154-1.512-0.097
										c-0.625,0.094-0.969,0.465-1.338,0.936c-0.433,0.552-1.368,0.071-1.091-0.607c0.335-0.82,1.179-1.401,2.05-1.509
										c0.413-0.051,0.896,0.002,1.272,0.189c0.448,0.224,0.502,0.521,0.754,0.906
										C378.121,103.063,378.045,103.208,377.929,103.155L377.929,103.155z"/>
								</g>
							</g>
						</g>
					</g>
					<g>
						<g>
							<g>
								<path style="fill:#421B36;" d="M342.292,91.163c1.733-2.694,5.465-2.826,7.418-0.372c2.744,3.448,1.882,9.839,0.109,13.521
									c-0.407,0.846-1.603,0.355-1.343-0.535c0.839-2.873,1.696-5.781,1.307-8.818c-0.27-2.111-1.161-4.491-3.702-4.584
									c-1.059-0.039-2.517,0.568-3.375,1.184C342.437,91.754,342.113,91.442,342.292,91.163L342.292,91.163z"/>
							</g>
						</g>
					</g>
					<g>
						<g>
							<g>
								<path style="fill:#421B36;" d="M366.251,121.82c-2.58,2.952-6.301,4.629-10.2,4.91c-0.769,0.055-0.962-1.075-0.181-1.199
									c3.751-0.596,7.03-1.906,10.313-3.796C366.231,121.708,366.286,121.779,366.251,121.82L366.251,121.82z"/>
							</g>
						</g>
					</g>
					<g>
						<path style="fill:#421B36;" d="M366.606,96.626c-0.034,2.207,0.73,6.114,1.486,8.187c0.257,0.706,0.637,1.416,1.286,1.793
							c0.65,0.377,1.62,0.274,1.986-0.382c0.126-0.226,0.568-0.822,0.676-1.057c1.375-2.998,1.3-4.753,1.766-7.663"/>
					</g>
				</g>
				<g>
					<g>
						<path style="fill:#421B36;" d="M343.51,84.137c-1.06-3.161-1.402-6.295,0.696-9.106c0.977-1.31-1.252-3.05-2.282-1.76
							c-2.732,3.42-3.31,8.899,0.919,11.38C343.171,84.842,343.638,84.521,343.51,84.137L343.51,84.137z"/>
					</g>
				</g>
				<g>
					<g>
						<path style="fill:#421B36;" d="M343.95,84.167c-0.639-0.689-1.708-0.937-2.552-1.3c-1.004-0.432-1.971-0.982-2.886-1.578
							c-1.504-0.98-2.97,1.506-1.409,2.411c1.654,0.959,4.963,2.352,6.767,1.091C344.083,84.642,344.135,84.366,343.95,84.167
							L343.95,84.167z"/>
					</g>
				</g>
			</g>
			<g>
				<path style="fill:#A0D2F4;" d="M397.633,137.586c0,0,6.032,0.921,9.858,8.491c3.678,7.278,14.894,53.61,14.58,62.705
					c-0.244,7.055-4.638,13.017-18.775,13.848c-11.648,0.685-31.481,1.525-34.004-2.491c-3.725-5.93-3.499-21.605,1.458-22.778
					c4.957-1.173,27.702,0.882,27.993,0s-4.427-18.421-5.593-25.711C391.985,164.361,389.76,137.003,397.633,137.586z"/>
			</g>
			<g>
				<g>
					<path style="fill:#421B36;" d="M406.969,146.382c0.848,1.697,1.411,3.552,1.989,5.352c0.94,2.933,1.784,5.896,2.598,8.866
						c2.03,7.409,3.857,14.875,5.537,22.37c1.489,6.643,2.931,13.326,3.887,20.07c0.715,5.036,0.962,10.385-3.085,14.186
						c-3.209,3.014-7.863,4.113-12.111,4.589c-4.587,0.514-9.27,0.6-13.882,0.718c-4.529,0.115-9.083,0.146-13.6-0.247
						c-1.779-0.155-3.569-0.37-5.3-0.821c-1.034-0.269-2.354-0.615-3.073-1.475c-0.983-1.176-1.429-2.987-1.783-4.441
						c-0.478-1.963-0.717-3.981-0.786-5.999c-0.113-3.29-0.044-7.537,1.926-10.355c1.4-2.001,4.574-1.585,6.721-1.599
						c3.675-0.025,7.352,0.132,11.023,0.283c3.126,0.128,6.258,0.311,9.388,0.314c1.152,0.001,3.07,0.284,2.909-1.346
						c-0.274-2.773-1.171-5.57-1.814-8.27c-0.962-4.039-1.942-8.075-2.816-12.134c-0.354-1.644-0.694-3.293-0.963-4.954
						c-0.124-0.767-1.291-0.442-1.167,0.322c1.246,7.681,3.441,15.189,5.103,22.784c0.055,0.252,0.31,2.586,0.481,2.661
						c0.121,0.053,0.272-0.34,0.23-0.369c-0.041-0.028-0.201,0.045-0.251,0.042c-0.458-0.026-0.948,0.05-1.409,0.053
						c-3.141,0.021-6.287-0.174-9.424-0.303c-3.76-0.155-7.525-0.319-11.289-0.294c-2.149,0.014-5.304-0.313-7.008,1.288
						c-2.281,2.143-2.671,6.085-2.826,9.011c-0.208,3.927,0.163,8.159,1.642,11.835c0.448,1.113,0.951,2.235,1.968,2.93
						c1.097,0.75,2.469,1.108,3.75,1.383c4.061,0.871,8.314,0.949,12.451,0.975c4.801,0.03,9.603-0.155,14.397-0.409
						c4.712-0.25,9.501-0.545,13.889-2.448c3.122-1.354,5.837-3.587,7.234-6.745c1.002-2.265,1.29-4.759,1.125-7.214
						c-0.405-6.018-1.747-12.028-2.977-17.917c-1.649-7.897-3.506-15.753-5.534-23.561c-1.534-5.903-3.04-11.899-5.2-17.612
						c-0.273-0.721-0.559-1.441-0.904-2.131C407.666,145.074,406.621,145.687,406.969,146.382L406.969,146.382z"/>
				</g>
			</g>
			<g>
				<path style="fill:#421B36;" d="M376.652,199.911c-0.932-1.489-2.83-2.304-4.552-1.953c-1.721,0.351-3.149,1.844-3.423,3.579
					l-0.829,8.694c0.077,3.027,0.909,6.031,2.399,8.667c0.449,0.794,1.123,1.647,2.034,1.612c0.928-0.036,1.532-0.965,1.934-1.803
					c2.147-4.477,3.191-9.447,3.289-14.411C377.533,202.786,377.453,201.192,376.652,199.911z"/>
			</g>
			<g>
				<path style="fill:#FFAE7A;" d="M375.369,199.071l-8.391-2.424c0,0-2.424-9.137-5.594-11.188c0,0-10.378-1.112-13.167-0.566
					c-2.788,0.547-3.007,4.593-2.57,5.577c0,0-2.351-0.984-3.609,0.82c-1.258,1.804,1.148,5.468,1.148,5.468s-1.312,3.007,0,4.866
					l1.531,0.984c0,0,1.203,3.991,2.515,5.194c1.312,1.203,10.607,3.281,13.286,3.226c2.679-0.055,5.96-0.656,6.124-0.601
					c0.164,0.055,8.256,3.281,8.256,3.281S379.339,201.604,375.369,199.071z"/>
			</g>
			<g>
				<g>
					<g>
						<g>
							<path style="fill:#A0D2F4;" d="M337.135,206.298l0.407-5.185c0.006-0.072,0.026-0.142,0.061-0.205
								c1.129-2.049,20.057-36.362,21.772-36.334c1.436,0.023,3.213,2.005,3.832,2.751c0.137,0.165,0.155,0.397,0.046,0.582
								c-2.006,3.406-20.276,34.396-21.703,35.95c-0.016,0.018,0.019-0.015,0,0l-3.588,2.879
								C337.614,207.016,337.1,206.744,337.135,206.298z"/>
						</g>
						<g>
							<g>
								<path style="fill:#421B36;" d="M337.247,207.685c0.036-0.118,0.078-0.235,0.125-0.349c0.01-0.024,0.02-0.049,0.031-0.073
									c-0.032,0.071,0.016-0.033,0.022-0.045c0.025-0.052,0.051-0.103,0.078-0.154c0.115-0.214,0.25-0.417,0.403-0.606
									c0.101-0.126,0.032-0.35-0.1-0.423c-0.161-0.09-0.315-0.034-0.424,0.1c-0.328,0.407-0.572,0.879-0.726,1.378
									c-0.047,0.154,0.049,0.343,0.209,0.382C337.029,207.934,337.196,207.85,337.247,207.685L337.247,207.685z"/>
							</g>
						</g>
					</g>
					<g>
						<g>
							<path style="fill:#421B36;" d="M337.609,201.384c1.46,0.32,2.788,1.162,3.666,2.379c0.098,0.136,0.259,0.207,0.418,0.122
								c0.133-0.071,0.219-0.283,0.122-0.418c-0.973-1.349-2.403-2.317-4.033-2.674
								C337.396,200.709,337.221,201.299,337.609,201.384L337.609,201.384z"/>
						</g>
					</g>
				</g>
				<g>
					<path style="fill:#FFAE7A;" d="M338.633,193.375c0,0,0.99-8.311,4.766-8.78c4.415-0.548,11.766-1.198,13.874,1.276
						c2.108,2.475,0,4.291,0,4.291s6.189,7.356,4.148,12.867c-2.04,5.512-12.081,4.166-14.268,2.025
						c-2.187-2.14-3.94-4.118-3.73-7.118c0.21-3,8.59-6.289,8.59-6.289s-5.681-1.81-6.894-1.296c-0.417,0.176-1.31,3.149-2.45,4.379
						C341.68,195.8,338.413,197.183,338.633,193.375z"/>
				</g>
				<g>
					<g>
						<path style="fill:#421B36;" d="M345.808,191.054c0.529-0.086,1.444-0.011,2.095,0.033c1.084,0.073,2.166,0.183,3.246,0.297
							c1.772,0.186,3.574,0.495,5.359,0.514c0-0.404,0-0.807,0-1.211c-2.277,0.303-4.548,0.86-6.712,1.625
							c-2.789,0.987-6.321,2.524-6.766,5.843c-0.093,0.694-0.07,1.487,0.197,2.147c0.129,0.317,0.392,0.499,0.745,0.423
							c4.532-0.978,9.064-1.955,13.595-2.933c0.761-0.164,0.439-1.332-0.322-1.167c-4.532,0.978-9.064,1.955-13.595,2.932
							c0.248,0.141,0.496,0.282,0.745,0.423c-0.258-0.635-0.261-1.399-0.096-2.054c0.471-1.87,2.252-2.905,3.883-3.664
							c1.783-0.83,3.691-1.397,5.604-1.839c0.655-0.151,1.315-0.287,1.977-0.403c0.213-0.037,0.426-0.072,0.639-0.106
							c0.075-0.012,0.445-0.063,0.107-0.017c0.747-0.1,0.806-1.202,0-1.211c-1.839-0.019-3.695-0.34-5.521-0.531
							c-1.768-0.184-3.725-0.557-5.5-0.269C344.719,190.01,345.045,191.177,345.808,191.054L345.808,191.054z"/>
					</g>
				</g>
				<g>
					<g>
						<path style="fill:#421B36;" d="M346.796,205.028c3.696,0.252,7.418-0.179,10.96-1.265c0.743-0.228,0.426-1.397-0.322-1.167
							c-3.449,1.057-7.039,1.467-10.638,1.221C346.018,203.764,346.021,204.975,346.796,205.028L346.796,205.028z"/>
					</g>
				</g>
			</g>
			<g>
				<path style="fill:#421B36;" d="M327.32,178.503c0.725,0.636,39.74,38.752,37.798,41.021c-1.942,2.269-37.11-2.269-41.27-4.916
					c-3.844-2.446-34.523-31.299-38.506-37.54c-0.327-0.513,0.431-2.049,0.59-2.148C287.435,173.985,325.815,177.183,327.32,178.503
					z"/>
			</g>
			<g>
				<path style="fill:#A0D2F4;" d="M329.834,213.707c0,0,5.033,5.141,0.572,10.861c-4.461,5.72-12.744,0.507-17.616-2.86
					c-4.344-3.001-8.283-16.898-5.824-22.224C307.01,199.389,329.834,213.707,329.834,213.707z"/>
			</g>
			<g>
				<path style="fill:#421B36;" d="M329.454,216.332c-0.513-0.114,3.275,9.791-3.451,9.494
					c-6.725-0.297-12.413-17.044-12.413-17.044l16.47,7.68"/>
			</g>
			<g>
				<g>
					<path style="fill:#421B36;" d="M398.321,197.818c5.179-0.312,10.299,1.244,14.439,4.37c0.622,0.47,1.226-0.581,0.611-1.045
						c-4.29-3.239-9.686-4.859-15.05-4.535C397.547,196.654,397.541,197.865,398.321,197.818L398.321,197.818z"/>
				</g>
			</g>
			<g>
				<g>
					<path style="fill:#FFAE7A;" d="M312.871,207.907c0,0-2.057-4.677-2.178-7.482c-0.121-2.805-3.389-6.314-2.057-8.009
						c1.331-1.694,4.235-0.47,5.083,0.605c1.812,2.297,2.784,8.958,2.784,8.958s0,1.008,1.452-1.555s4.13-10.308,6.724-10.187
						c2.594,0.121,2.352,2.943,1.263,5.586s-4.236,7.992-2.299,9.13c1.936,1.138,9.571-11.226,12.102-8.302
						s-6.293,11.255-6.293,11.255s8.612-7.377,10.962-5.928c2.35,1.45,1.202,3.986,1.202,3.986s2.842,1.82,1.874,3.151
						c-0.968,1.331-17.185,11.86-20.574,11.376C319.527,220.009,312.569,210.908,312.871,207.907z"/>
				</g>
				<g>
					<g>
						<path style="fill:#421B36;" d="M315.685,205.493c1.381-2.196,2.033-4.787,3.414-6.982c0.416-0.661-0.631-1.27-1.045-0.611
							c-1.381,2.196-2.033,4.787-3.414,6.982C314.224,205.544,315.271,206.152,315.685,205.493L315.685,205.493z"/>
					</g>
				</g>
				<g>
					<g>
						<path style="fill:#421B36;" d="M330.11,213.033c4.022-1.704,7.84-3.848,11.388-6.395c0.627-0.45,0.024-1.501-0.611-1.045
							c-3.548,2.547-7.367,4.691-11.388,6.395C328.784,212.291,329.4,213.334,330.11,213.033L330.11,213.033z"/>
					</g>
				</g>
			</g>
			<g>
				<g>
					<path style="fill:#421B36;" d="M326.917,210.108c3.225-2.52,6.521-4.947,9.882-7.284c0.635-0.442,0.031-1.492-0.611-1.045
						c-3.445,2.395-6.82,4.889-10.127,7.473C325.447,209.731,326.309,210.583,326.917,210.108L326.917,210.108z"/>
				</g>
			</g>
			<g>
				<g>
					<path style="fill:#421B36;" d="M374.003,218.567c1.613-3.185,2.668-6.355,2.983-9.917c0.184-2.077,0.38-4.201,0.111-6.278
						c-0.208-1.599-0.73-3.653-2.29-4.462c-0.691-0.358-1.304,0.686-0.611,1.045c1.622,0.841,1.778,3.51,1.812,5.088
						c0.037,1.705-0.111,3.431-0.282,5.127c-0.316,3.144-1.347,5.977-2.769,8.786C372.606,218.649,373.65,219.263,374.003,218.567
						L374.003,218.567z"/>
				</g>
			</g>
			<g>
				<g>
					<path style="fill:#421B36;" d="M393.978,164.039c0.82-8.317,4.464-16.202,10.237-22.24c0.539-0.563-0.316-1.421-0.856-0.856
						c-6.008,6.283-9.739,14.448-10.592,23.096C392.691,164.814,393.902,164.808,393.978,164.039L393.978,164.039z"/>
				</g>
			</g>
			<g>
				<g>
					<path style="fill:#421B36;" d="M352.298,109.373c0.942,0.596,2.333,0.017,3.238-0.415c1.135-0.542,2.219-1.38,2.846-2.486
						c0.434-0.764-0.554-1.482-1.187-0.916c-0.804,0.719-1.534,1.452-2.493,1.975c-0.771,0.42-1.881,0.584-2.481,1.243
						C352.052,108.96,352.083,109.238,352.298,109.373L352.298,109.373z"/>
				</g>
			</g>
			<g>
				<g>
					<path style="fill:#421B36;" d="M310.157,197.189c0.82-0.774,1.144-2.072,0.721-3.129c-0.44-1.101-1.522-1.853-2.713-1.856
						c-0.317-0.001-0.62,0.279-0.605,0.605c0.015,0.329,0.266,0.604,0.605,0.605c0.057,0,0.114,0.003,0.171,0.005
						c0.115,0.004-0.031-0.01,0.037,0.002c0.103,0.018,0.204,0.041,0.304,0.072c0.054,0.017,0.108,0.036,0.161,0.057
						c-0.08-0.032,0.002,0.003,0.038,0.02c0.094,0.047,0.184,0.099,0.271,0.157c0.011,0.007,0.129,0.095,0.077,0.054
						c-0.052-0.041,0.06,0.053,0.07,0.062c0.078,0.07,0.148,0.146,0.218,0.225c0.042,0.048-0.033-0.053,0.027,0.035
						c0.032,0.047,0.064,0.094,0.093,0.143c0.024,0.041,0.047,0.082,0.069,0.125c0.013,0.025,0.026,0.051,0.038,0.077
						c-0.019-0.049-0.021-0.053-0.006-0.013c0.037,0.098,0.067,0.198,0.089,0.3c0.003,0.014,0.03,0.163,0.018,0.087
						c-0.011-0.076,0.006,0.075,0.007,0.089c0.007,0.104,0.006,0.209-0.002,0.313c-0.003,0.045-0.015,0.126-0.001,0.037
						c-0.009,0.056-0.02,0.112-0.032,0.168c-0.021,0.093-0.052,0.182-0.08,0.274c-0.04,0.131,0.029-0.046-0.026,0.066
						c-0.025,0.051-0.05,0.102-0.078,0.152c-0.046,0.082-0.097,0.163-0.155,0.238c0.07-0.09-0.047,0.048-0.051,0.053
						c-0.039,0.042-0.08,0.081-0.121,0.121c-0.238,0.225-0.227,0.63,0,0.856C309.538,197.426,309.919,197.414,310.157,197.189
						L310.157,197.189z"/>
				</g>
			</g>
			<g>
				<path style="fill:#421B36;" d="M351.392,174.729c0,0,6.03,4.722,6.988,3.602c0.959-1.119,5.256-9.778,5.811-11.23
					c1.015-2.652-2.997-5.514-6.37-2.063C354.451,168.489,351.392,174.729,351.392,174.729z"/>
			</g>
			<g>
				<g>
					<path style="fill:#421B36;" d="M347.934,178.729c2.723-4.364,5.561-8.655,8.512-12.868c-0.228,0.093-0.456,0.186-0.684,0.278
						c0.413,0.136,0.825,0.273,1.238,0.409c0.742,0.245,1.059-0.924,0.322-1.167c-0.413-0.136-0.826-0.273-1.238-0.409
						c-0.27-0.089-0.534,0.064-0.684,0.278c-2.951,4.213-5.79,8.503-8.512,12.868C346.475,178.781,347.522,179.39,347.934,178.729
						L347.934,178.729z"/>
				</g>
			</g>
			<g>
				<path style="fill:#421B36;" d="M297.745,178.289c0,0-4.615-4.545-4.196-5.524c0.42-0.979,2.168-1.818,2.378-1.818
					c0.21,0,12.727,0.559,14.056,1.189c1.329,0.629,4.545,5.804,3.147,6.154C311.731,178.639,297.745,178.289,297.745,178.289z"/>
			</g>
			<g>
				<g>
					<path style="fill:#8380FF;" d="M362.059,218.852c-7.408-7.222-14.417-14.847-21.329-22.541
						c-3.444-3.834-6.859-7.693-10.27-11.557c-0.798-0.904-1.596-1.809-2.394-2.713c-0.503-0.57-0.99-1.435-1.732-1.649
						c-0.221-0.064-0.499-0.047-0.728-0.068c-9.663-0.907-19.326-1.814-28.989-2.722c-3.42-0.321-6.839-0.642-10.259-0.963
						c-0.775-0.073-0.77,1.138,0,1.211c8.294,0.779,16.589,1.557,24.883,2.336c4.464,0.419,8.928,0.838,13.393,1.257
						c0.438,0.041,0.964,0.012,1.389,0.13c0.078,0.021,0.205-0.013,0.276,0.026c0.221,0.12-0.824-0.546-0.131,0.118
						c0.468,0.449,0.874,0.99,1.304,1.477c3.31,3.75,6.618,7.502,9.948,11.233c7.702,8.63,15.496,17.203,23.782,25.28
						C361.761,220.252,362.618,219.397,362.059,218.852L362.059,218.852z"/>
				</g>
			</g>
		</g>
		<g>
			<path style="fill:#A0D2F4;" d="M382.169,248.545c0,0-0.131,29.2,7.588,31.442c7.719,2.242,26.378-0.126,27.314-4.556
				s-3.476-33.623-7.044-33.623C406.458,241.808,382.169,248.545,382.169,248.545z"/>
		</g>
		<g>
			<g>
				<path style="fill:#421B36;" d="M381.563,248.545c-0.031,7.717,0.451,15.782,2.415,23.263c0.87,3.315,2.261,7.89,6.016,8.872
					c5.616,1.469,12.055,0.886,17.693-0.146c2.531-0.463,5.169-1.072,7.45-2.306c1.366-0.738,2.454-1.707,2.614-3.311
					c0.167-1.673,0.002-3.399-0.137-5.068c-0.21-2.513-0.524-5.017-0.887-7.513c-0.763-5.25-1.677-10.561-3.247-15.638
					c-0.472-1.526-0.978-3.227-1.95-4.523c-0.752-1.003-1.541-1.022-2.704-0.857c-4.587,0.651-9.124,1.961-13.603,3.113
					c-4.178,1.075-8.346,2.189-12.506,3.334c-0.236,0.065-0.473,0.13-0.709,0.196c-0.75,0.208-0.431,1.376,0.322,1.167
					c7.616-2.112,15.261-4.206,22.981-5.904c1.435-0.315,3.008-0.798,4.489-0.804c0.352-0.001,0.399,0.025,0.703,0.39
					c0.403,0.484,0.673,1.119,0.918,1.693c1.773,4.158,2.564,8.838,3.35,13.261c0.842,4.733,1.564,9.54,1.784,14.348
					c0.049,1.074,0.312,2.692-0.28,3.667c-0.969,1.597-3.577,2.265-5.228,2.739c-5.537,1.589-11.665,2.096-17.396,1.549
					c-1.816-0.173-3.973-0.312-5.323-1.685c-1.274-1.296-1.999-3.117-2.565-4.81c-1.535-4.588-2.113-9.507-2.517-14.307
					c-0.285-3.388-0.449-6.792-0.471-10.192c-0.001-0.176-0.002-0.353-0.002-0.529C382.777,247.766,381.566,247.765,381.563,248.545
					z"/>
			</g>
		</g>
	</g>
</g>
</svg>
